<?xml version="1.0" standalone="no"?>
<!DOCTYPE svg PUBLIC "-//W3C//DTD SVG 20010904//EN"
 "http://www.w3.org/TR/2001/REC-SVG-20010904/DTD/svg10.dtd">
<svg version="1.0" xmlns="http://www.w3.org/2000/svg"
 width="1280.000000pt" height="1214.000000pt" viewBox="0 0 1280.000000 1214.000000"
 preserveAspectRatio="xMidYMid meet">

<g transform="translate(0.000000,1214.000000) scale(0.100000,-0.100000)"
fill="#000000" stroke="none">
<path d="M6052 9963 c-6 -2 -10 -9 -7 -13 3 -5 0 -12 -6 -16 -8 -5 -9 -3 -4 6
11 18 -72 7 -123 -16 -153 -68 -188 -88 -219 -123 -19 -22 -65 -55 -108 -77
-56 -29 -73 -43 -70 -55 5 -15 -25 -34 -49 -30 -4 1 -15 -4 -23 -11 -9 -7 -23
-13 -31 -13 -8 0 -22 -12 -31 -26 -25 -41 -163 -243 -170 -249 -16 -13 -116
-248 -109 -255 2 -2 15 17 28 43 51 98 100 178 130 212 17 19 61 72 98 117 37
45 75 85 85 88 20 7 23 31 5 38 -10 3 -10 8 1 21 9 11 27 16 50 15 29 -2 52 9
116 53 89 62 175 108 202 108 10 0 44 9 76 20 62 21 268 60 315 60 17 0 45 -6
63 -14 l34 -15 -36 2 c-21 1 -35 5 -32 10 2 4 -9 7 -25 7 -25 0 -32 -6 -45
-39 -13 -33 -21 -39 -54 -44 -21 -4 -49 -7 -62 -7 -14 0 -32 -6 -40 -14 -9 -7
-37 -21 -63 -31 -46 -17 -63 -35 -34 -35 22 0 76 -49 76 -69 0 -14 -20 -21
-105 -38 -101 -20 -190 -55 -288 -115 -33 -19 -39 -20 -47 -8 -28 43 12 95
110 144 72 37 85 50 40 41 -42 -9 -70 -23 -70 -35 0 -5 -10 -12 -22 -16 -46
-14 -119 -78 -200 -176 -47 -57 -96 -112 -108 -123 l-22 -20 24 -5 c31 -8 36
-45 7 -60 -17 -10 -24 -9 -37 3 -14 14 -18 11 -44 -29 -36 -58 -100 -184 -93
-184 3 0 17 12 30 28 29 33 43 22 26 -21 -7 -18 -25 -67 -41 -110 -16 -44 -35
-84 -43 -90 -21 -18 -75 -264 -89 -402 -17 -180 -19 -670 -2 -720 7 -22 18
-86 23 -142 5 -56 12 -107 16 -113 8 -12 35 -137 35 -159 0 -11 -3 -11 -14 -2
-13 11 -15 -4 -19 -101 -2 -62 -9 -156 -16 -208 -6 -52 -19 -149 -27 -215 -8
-66 -22 -158 -30 -205 -8 -47 -21 -128 -29 -180 -8 -52 -22 -126 -30 -165 -8
-38 -19 -110 -25 -160 -25 -218 -50 -299 -106 -340 -15 -11 -35 -28 -45 -39
-10 -10 -22 -15 -28 -11 -6 3 -11 2 -11 -4 0 -5 4 -11 9 -13 12 -4 2 -58 -10
-58 -13 0 -11 28 2 36 8 5 6 10 -5 16 -24 13 -38 1 -26 -22 13 -24 13 -30 0
-30 -5 0 -10 10 -10 21 0 19 -4 21 -32 16 -57 -9 -103 -34 -204 -110 -102 -77
-152 -123 -142 -133 3 -3 22 9 41 25 44 39 51 39 29 -1 -14 -24 -29 -35 -59
-43 -53 -13 -201 -151 -214 -200 -6 -22 -5 -63 5 -124 21 -130 15 -154 -59
-228 -67 -68 -119 -155 -130 -218 -11 -56 -74 -184 -145 -290 l-60 -90 0 -97
c0 -142 -26 -316 -70 -463 -140 -473 -167 -622 -230 -1285 -6 -69 -16 -158
-21 -198 -5 -40 -9 -119 -9 -175 -1 -56 -5 -136 -11 -177 -5 -41 -16 -136 -24
-210 -26 -236 -35 -291 -76 -450 -23 -85 -55 -207 -71 -270 -41 -157 -73 -310
-103 -503 -14 -89 -32 -198 -40 -242 -8 -44 -15 -88 -15 -97 0 -17 179 -18
3599 -18 l3598 0 7 198 c5 131 4 206 -3 222 -6 14 -20 83 -33 155 -19 112 -22
170 -23 410 -1 255 -3 285 -22 341 -12 33 -31 114 -42 180 -33 181 -52 271
-78 364 -32 114 -43 194 -43 325 0 69 -6 130 -16 165 -52 182 -86 326 -94 405
-12 111 -25 181 -44 248 -8 29 -17 97 -21 152 -6 90 -14 145 -60 395 -14 76
-58 267 -96 415 -11 44 -27 118 -35 165 -8 47 -37 152 -65 233 -27 81 -61 191
-74 245 -13 53 -29 98 -34 100 -6 2 -9 13 -6 25 4 14 -3 34 -20 56 -14 19 -25
38 -25 43 0 4 -18 38 -41 75 -23 36 -45 76 -49 87 -8 18 -9 16 -9 -11 -1 -17
-8 -58 -16 -90 -18 -72 -32 -179 -46 -348 -10 -116 -38 -288 -99 -600 -19 -98
-38 -223 -60 -395 -35 -277 -86 -505 -175 -775 -90 -272 -205 -464 -411 -685
-34 -36 -86 -92 -117 -125 l-55 -60 21 -27 c16 -20 26 -25 37 -18 24 15 40 12
40 -9 0 -29 -83 -201 -115 -240 -37 -44 -162 -151 -176 -151 -8 0 -8 4 0 14 9
11 2 14 -38 14 -28 1 -53 -3 -56 -8 -11 -18 -38 -12 -30 8 3 9 7 22 8 27 2 12
-35 8 -72 -8 -14 -5 -30 -9 -35 -8 -5 1 -28 -7 -52 -19 -24 -11 -56 -20 -71
-20 -30 0 -138 31 -149 43 -4 4 -13 7 -21 7 -28 0 -7 -56 40 -104 26 -26 47
-52 47 -57 0 -5 9 -19 20 -31 47 -50 12 -61 -208 -66 -180 -4 -261 5 -350 39
-13 5 -34 9 -47 9 -14 0 -25 4 -25 9 0 5 -48 10 -107 13 -105 4 -110 5 -159
40 -60 42 -127 78 -147 78 -8 0 -33 24 -56 53 -24 29 -62 66 -85 82 -23 16
-53 44 -67 62 -29 41 -88 103 -98 103 -4 0 -12 -5 -19 -10 -6 -6 -10 -7 -7 -4
3 4 -1 14 -8 22 -10 13 -9 15 6 9 15 -6 16 -4 7 13 -18 33 -28 31 -26 -5 2
-19 -1 -35 -6 -35 -6 0 -8 -7 -4 -15 3 -9 0 -15 -9 -15 -20 0 -19 -13 3 -33
22 -20 48 -22 55 -4 4 9 8 8 16 -3 7 -11 5 -20 -9 -35 -11 -12 -20 -29 -20
-39 0 -9 -8 -40 -17 -69 -12 -37 -13 -52 -5 -55 19 -6 14 -31 -8 -44 -11 -7
-20 -16 -20 -21 0 -4 5 -5 10 -2 6 3 10 -1 10 -9 0 -8 -4 -17 -9 -20 -4 -3
-14 -27 -21 -53 -23 -87 -32 -103 -68 -109 -19 -4 -43 -1 -55 5 -12 6 -46 16
-76 21 -30 6 -56 12 -58 13 -1 2 -3 91 -4 198 -1 178 5 267 31 509 15 140 17
131 -52 170 -33 19 -97 65 -141 102 -47 40 -90 68 -103 68 -12 0 -53 26 -94
60 -40 33 -82 63 -95 66 -19 5 -31 32 -85 192 -34 103 -66 195 -71 204 -11 21
-59 205 -59 228 0 9 -21 22 -56 33 -31 10 -75 33 -98 51 -22 18 -56 41 -74 50
-19 10 -32 20 -29 22 7 8 109 -36 132 -57 33 -29 135 -79 163 -79 15 -1 47 3
72 9 25 5 48 7 52 5 4 -2 9 0 12 5 3 5 16 7 27 4 20 -6 21 -3 15 23 -8 32 -22
44 -52 44 -45 0 -89 65 -80 119 3 21 2 30 -3 22 -6 -10 -17 -3 -42 29 -23 29
-39 40 -52 36 -10 -2 -21 2 -24 10 -4 12 -7 12 -18 -2 -11 -16 -13 -16 -23 2
-11 19 -11 19 -12 0 0 -24 -15 -11 -25 23 -5 16 -4 21 4 17 7 -5 9 -1 5 8 -3
9 -12 16 -19 16 -7 0 -26 27 -44 59 -17 33 -46 82 -65 109 -29 43 -31 50 -17
60 13 8 14 13 4 30 -7 12 -9 24 -4 27 18 11 -1 45 -25 45 -15 0 -24 6 -24 15
0 8 -4 15 -10 15 -5 0 -10 -5 -10 -10 0 -17 30 -73 54 -99 16 -18 17 -22 4
-15 -25 13 -71 89 -97 157 -25 68 -27 94 -6 94 12 0 14 -7 10 -29 -7 -29 11
-41 21 -14 3 8 13 12 25 9 16 -5 18 -11 13 -39 -7 -37 9 -46 35 -22 11 11 14
10 18 0 4 -10 8 -9 17 3 9 13 19 14 53 7 44 -10 55 -5 81 43 6 11 12 14 12 8
0 -21 54 -15 70 7 8 11 24 20 35 20 12 0 26 5 33 12 6 6 22 13 34 15 34 4 102
35 111 50 4 7 14 13 21 13 7 0 25 12 40 27 34 34 33 86 -2 91 -23 4 -31 -13
-9 -21 6 -3 -8 -3 -33 0 -24 2 -47 9 -50 14 -5 7 -82 7 -100 -1 -3 -1 -9 -2
-14 -1 -4 1 -13 -2 -20 -7 -37 -29 -114 -14 -84 16 16 16 2 28 -16 13 -19 -16
-26 15 -19 85 5 44 3 54 -10 54 -14 0 -27 20 -27 41 0 5 7 9 15 9 8 0 15 5 15
10 0 6 -9 10 -20 10 -15 0 -20 -7 -20 -25 0 -24 -9 -36 -65 -83 -30 -25 -85
-30 -85 -8 0 8 10 16 22 18 12 2 23 8 25 14 6 18 -49 4 -70 -17 -10 -11 -27
-19 -37 -19 -32 0 -27 55 9 88 37 35 51 64 45 89 -5 19 -8 20 -35 6 -16 -8
-32 -25 -35 -39 -3 -13 -12 -24 -20 -24 -14 0 -41 -40 -27 -40 4 -1 -2 -9 -15
-19 -12 -11 -21 -28 -20 -38 0 -10 0 -27 -1 -38 -4 -29 -21 36 -30 112 -7 72
-12 79 -40 61 -16 -10 -23 -10 -33 0 -6 6 -20 12 -29 12 -21 0 -43 52 -34 80
5 16 13 20 33 18 24 -3 30 4 59 62 29 57 33 75 33 143 0 56 3 76 11 71 9 -5
10 1 5 21 -4 15 -2 89 5 163 11 117 14 132 26 117 12 -17 13 -15 13 22 0 23 4
44 10 48 13 8 43 -53 37 -75 -5 -20 22 -111 47 -157 21 -39 20 -13 -4 57 -15
44 -17 65 -10 85 14 38 35 30 59 -22 11 -27 18 -38 16 -27 -4 13 1 29 11 38
15 16 17 16 29 0 6 -9 17 -14 22 -11 14 9 21 -10 29 -75 11 -91 53 -112 54
-27 0 20 5 50 11 67 9 28 14 31 37 26 60 -13 60 -13 67 -67 7 -49 54 -149 77
-163 6 -4 9 -3 7 2 -3 5 -17 35 -32 66 -33 68 -43 113 -29 122 6 4 32 1 57 -5
25 -6 48 -9 51 -6 3 3 -17 29 -45 58 -54 55 -61 82 -23 87 28 4 28 13 1 31
-17 10 -23 10 -29 1 -4 -7 -13 -9 -19 -6 -16 11 -13 26 4 20 19 -8 19 15 1 39
-17 22 -23 22 -36 -4 -9 -16 -8 -24 3 -37 8 -9 18 -27 21 -38 6 -21 4 -22 -81
-19 -81 2 -249 36 -264 53 -3 4 -9 21 -12 39 -5 25 -1 36 20 57 47 47 103 47
103 1 0 -15 4 -24 10 -20 6 3 10 18 10 33 0 14 12 38 27 54 23 24 24 28 9 34
-20 8 -59 1 -103 -17 -25 -10 -37 -10 -55 -1 -13 6 -36 13 -53 14 -16 2 -28 6
-25 9 3 3 -1 13 -9 22 -12 15 -11 17 6 17 11 0 40 11 64 23 24 13 50 22 56 20
7 -3 16 2 19 11 9 24 20 20 69 -29 38 -38 48 -44 64 -35 30 15 49 12 56 -10 7
-23 21 -18 74 30 19 17 41 28 49 25 7 -3 19 -2 25 2 22 13 57 12 57 -3 0 -8 4
-14 9 -14 4 0 6 11 4 24 -4 21 2 28 38 47 24 12 56 30 71 41 16 11 32 17 37
13 11 -6 131 81 131 96 0 15 -23 10 -55 -11 -36 -24 -83 -26 -91 -5 -4 8 -14
15 -24 15 -11 0 -22 5 -25 10 -10 16 -58 7 -73 -13 -19 -24 -8 -54 13 -37 11
9 15 9 15 1 0 -6 10 -15 23 -20 22 -8 22 -9 -12 -40 -19 -18 -48 -35 -64 -38
-16 -3 -31 -12 -34 -19 -3 -8 -10 -14 -17 -14 -14 0 -11 213 3 218 28 9 52 40
57 72 3 21 15 44 31 57 18 15 24 27 20 42 -3 12 -1 21 4 21 5 0 9 -6 9 -14 0
-22 38 -30 64 -12 13 8 26 27 29 43 3 15 8 38 12 50 6 18 0 25 -33 42 -22 11
-49 32 -61 47 -19 24 -19 28 -6 54 8 16 19 32 25 35 5 3 10 17 10 30 0 14 9
48 19 76 l20 50 -25 46 c-13 26 -37 62 -52 82 -36 47 -52 79 -52 103 0 11 -9
31 -20 45 -11 14 -17 29 -14 34 3 5 -6 24 -20 42 -39 51 -57 103 -58 167 -1
49 -3 57 -17 53 -13 -4 -13 -3 -2 5 11 8 5 19 -30 54 -57 58 -94 108 -79 108
15 0 60 -29 96 -63 20 -18 34 -25 38 -18 4 6 4 16 0 23 -5 8 0 9 17 4 13 -4
78 -14 144 -22 66 -8 135 -19 154 -25 l35 -12 -37 -21 c-25 -14 -37 -28 -37
-43 0 -12 -10 -29 -21 -37 -17 -12 -22 -26 -23 -68 -1 -41 -7 -61 -29 -89 -30
-40 -34 -64 -12 -73 8 -3 15 -15 15 -26 0 -28 27 -90 38 -90 6 0 13 12 16 26
15 58 54 -7 42 -70 -8 -42 -21 -39 -42 8 -13 30 -13 30 -14 -32 0 -49 5 -70
20 -89 13 -17 20 -42 21 -72 1 -59 1 -159 0 -191 -1 -14 4 -27 11 -29 6 -2 28
-19 50 -39 21 -19 42 -32 45 -28 4 4 3 10 -3 14 -6 4 -17 18 -24 31 -10 19
-10 25 1 32 27 17 46 8 68 -32 13 -22 29 -43 37 -46 22 -8 16 -32 -11 -45 -19
-8 -28 -8 -40 2 -22 18 -28 7 -21 -35 5 -25 14 -39 32 -45 13 -5 24 -14 24
-20 0 -19 19 -10 25 13 4 12 17 31 30 42 32 28 39 98 10 103 -25 5 -65 41 -65
59 0 10 13 13 48 12 56 -3 72 -13 72 -47 0 -18 3 -23 10 -16 8 8 7 39 -1 102
-13 102 -7 122 37 122 13 0 24 5 24 10 0 6 -6 10 -14 10 -7 0 -34 20 -58 45
-49 49 -74 58 -63 24 7 -20 -11 -79 -24 -79 -14 0 -64 39 -91 71 -61 72 -27
169 59 169 32 0 41 4 47 23 3 12 13 29 20 38 13 15 8 16 -60 11 l-74 -5 -16
31 c-21 41 -20 70 5 116 19 35 19 41 6 75 -16 39 -12 84 9 116 8 11 14 44 14
73 0 48 -2 53 -19 47 -19 -6 -19 -4 -5 23 8 16 31 41 52 55 48 32 100 84 116
116 19 37 34 139 41 274 3 65 8 124 11 131 7 19 56 38 86 34 27 -4 77 -88 78
-131 0 -16 4 -26 9 -23 5 3 12 -10 15 -30 4 -19 16 -52 28 -72 27 -48 36 -133
15 -150 -8 -7 -13 -21 -10 -33 4 -14 0 -22 -15 -25 -12 -4 -26 -22 -36 -47
-16 -44 -32 -127 -24 -127 3 0 19 12 35 28 17 15 42 37 57 49 24 20 25 23 11
50 -20 38 -19 60 4 68 11 3 26 17 35 30 16 24 22 25 112 25 57 0 118 -6 150
-16 60 -17 125 -16 132 4 2 8 -8 12 -30 12 -46 1 -16 17 41 23 23 2 46 8 49
13 4 6 29 22 55 38 115 66 180 170 207 331 12 70 19 93 24 78 4 -14 12 -20 22
-16 7 3 14 1 14 -5 0 -6 -6 -13 -12 -15 -10 -4 -10 -6 -1 -6 18 -1 40 -49 48
-104 4 -26 12 -47 19 -47 6 0 2 -8 -9 -16 -18 -14 -18 -16 -4 -27 9 -7 19 -24
22 -39 4 -15 13 -33 20 -40 8 -7 16 -29 20 -48 3 -19 9 -45 13 -57 5 -20 3
-23 -20 -23 -34 0 -25 -16 13 -25 44 -10 55 -27 41 -69 -9 -27 -22 -40 -62
-60 l-52 -26 33 -6 c40 -8 46 -23 31 -69 -17 -51 -54 -85 -93 -85 -27 0 -32
-4 -32 -23 0 -19 6 -24 35 -26 46 -3 73 -22 94 -64 23 -49 20 -66 -11 -78 -15
-6 -30 -14 -33 -18 -11 -16 -78 -51 -97 -51 -20 0 -20 -1 -4 -36 17 -39 19
-39 127 -18 26 5 32 2 42 -21 7 -14 12 -39 12 -56 0 -40 -55 -143 -88 -165
-25 -16 -27 -16 -37 1 -40 68 -56 67 -98 -3 -42 -71 -75 -104 -108 -111 -39
-8 -33 -26 6 -22 17 1 39 3 50 4 43 4 31 -91 -20 -157 -34 -45 -30 -64 9 -44
28 15 42 -5 28 -37 -18 -40 -14 -69 13 -95 37 -35 60 -18 61 44 1 25 -2 49 -7
52 -16 10 -9 51 13 79 17 22 22 42 22 90 1 70 11 87 68 116 43 22 78 13 78
-20 0 -16 -60 -85 -104 -119 -24 -19 -9 -35 17 -18 12 8 39 17 59 20 20 4 38
12 40 18 5 15 37 3 44 -16 3 -8 -4 -24 -15 -35 -12 -12 -21 -26 -21 -32 0 -5
-15 -16 -33 -24 -43 -18 -54 -31 -62 -77 -6 -32 -4 -38 18 -53 20 -12 30 -14
45 -6 18 9 20 7 24 -27 5 -44 -25 -92 -90 -144 -26 -21 -41 -41 -41 -56 -1
-15 -28 -51 -78 -102 -133 -134 -273 -260 -288 -260 -28 0 -15 21 30 48 48 29
61 49 20 30 -19 -8 -28 -8 -40 2 -14 11 -20 8 -45 -21 -16 -19 -29 -37 -30
-40 -1 -15 -63 -31 -100 -26 -47 6 -44 -7 5 -23 24 -8 40 -8 54 -1 12 7 22 7
26 2 8 -15 -29 -31 -70 -31 -25 0 -53 11 -89 35 -29 19 -57 35 -61 35 -17 0
31 -42 77 -67 46 -25 47 -27 28 -40 -14 -10 -31 -12 -53 -8 -42 10 -26 -7 21
-21 l37 -10 -50 -26 c-27 -14 -70 -31 -95 -38 -25 -7 -66 -23 -91 -36 -96 -49
-271 -104 -340 -107 -54 -2 -63 -4 -50 -14 9 -7 21 -13 27 -13 6 0 14 -14 18
-31 11 -56 9 -59 -38 -59 -61 0 -78 -22 -42 -55 33 -30 36 -31 36 -5 0 27 9
25 53 -11 22 -18 37 -39 37 -53 0 -12 11 -37 24 -54 13 -19 26 -53 29 -82 3
-28 11 -58 16 -68 8 -13 9 -7 4 20 -7 44 8 50 25 11 11 -27 11 -27 8 -3 -3 14
-11 43 -20 65 -8 22 -15 68 -16 103 0 74 9 82 78 61 44 -14 47 -18 54 -57 4
-23 15 -51 26 -62 10 -11 25 -38 32 -60 7 -22 21 -48 32 -59 10 -11 18 -24 18
-28 0 -11 -142 -143 -155 -143 -5 0 -23 -16 -38 -35 -15 -19 -35 -35 -43 -35
-8 0 -12 -4 -9 -10 3 -5 2 -10 -4 -10 -5 0 -27 -16 -48 -35 -21 -19 -43 -33
-50 -31 -8 3 -10 -1 -6 -11 5 -12 2 -15 -9 -10 -13 4 -16 -1 -15 -29 l1 -35
15 28 c16 31 48 58 71 59 8 0 32 -8 53 -18 21 -11 48 -18 60 -16 19 3 22 10
25 56 4 67 22 68 22 1 0 -45 2 -50 18 -44 9 4 30 10 46 13 16 3 40 18 54 33
13 16 31 29 39 29 18 0 69 34 102 69 l23 25 -21 8 c-11 4 -21 11 -21 16 0 4
-16 6 -36 4 -23 -3 -39 0 -45 9 -6 10 -11 6 -19 -15 -8 -23 -7 -32 4 -45 12
-13 12 -19 2 -34 -18 -24 -59 -23 -51 2 7 22 -4 53 -16 45 -11 -6 -49 4 -49
14 0 4 15 7 33 7 29 0 33 3 42 42 6 23 14 45 19 50 5 4 6 3 2 -4 -4 -8 3 -11
23 -11 23 1 31 7 36 26 4 17 11 23 23 19 65 -21 68 -21 54 -5 -20 24 3 32 34
11 27 -17 27 -17 13 5 -8 12 -20 22 -28 22 -11 0 -12 3 -3 12 8 8 15 8 26 -1
11 -10 15 -9 18 3 2 12 7 11 27 -5 23 -19 24 -23 12 -52 -27 -67 -27 -69 4
-53 16 8 31 20 35 26 11 17 34 2 50 -33 8 -18 21 -31 28 -29 7 1 15 -5 18 -13
4 -8 12 -15 19 -15 13 0 13 -9 -1 -57 -5 -19 -2 -23 14 -23 11 0 23 6 25 13 4
9 6 9 6 0 1 -7 8 -13 17 -13 11 0 14 -6 9 -21 -5 -15 -1 -25 14 -36 12 -8 19
-19 16 -24 -4 -5 2 -6 12 -2 17 7 17 6 0 -20 -9 -14 -17 -34 -18 -44 0 -11 -3
-13 -6 -5 -7 17 -23 15 -23 -3 0 -27 29 -16 47 18 l17 32 6 -30 c3 -16 1 -49
-4 -72 -7 -32 -15 -43 -34 -48 -23 -6 -24 -9 -18 -58 6 -45 4 -56 -13 -71 -16
-15 -19 -28 -16 -77 3 -42 -1 -63 -11 -73 -8 -8 -11 -22 -8 -30 3 -9 1 -23 -6
-31 -7 -8 -10 -22 -6 -30 3 -9 0 -15 -9 -15 -8 0 -15 -8 -15 -17 0 -10 -7 -31
-15 -47 -8 -15 -15 -34 -15 -41 0 -7 -6 -15 -12 -18 -10 -3 -10 -8 -2 -16 6
-7 8 -27 4 -49 -4 -29 -10 -37 -25 -35 -11 1 -24 -5 -28 -13 -5 -10 -17 -12
-35 -8 -38 9 -110 42 -117 54 -10 15 -23 12 -28 -7 -4 -17 -5 -17 -6 0 -1 23
-8 22 -42 -12 -24 -25 -28 -35 -22 -62 4 -22 3 -30 -5 -25 -17 10 -20 -27 -4
-51 16 -26 42 -31 42 -8 0 17 16 20 25 5 4 -6 10 -8 15 -5 12 7 32 -22 34 -50
1 -29 21 -32 54 -9 12 8 32 14 45 12 17 -3 3 -13 -56 -42 -43 -22 -80 -42 -82
-45 -1 -3 9 -6 23 -7 15 0 35 -4 45 -8 12 -6 17 -4 17 9 0 13 3 15 13 7 6 -5
33 -13 59 -16 25 -4 52 -14 58 -21 7 -9 29 -15 51 -15 20 0 44 -6 51 -13 17
-17 65 -29 87 -22 16 5 16 11 6 63 -6 31 -14 65 -18 74 -16 41 -15 46 9 46 17
0 24 -6 24 -20 0 -24 23 -33 50 -18 28 15 19 23 -49 45 -29 10 -65 23 -78 30
l-25 13 88 89 c49 49 115 108 146 131 60 44 74 45 112 10 12 -11 32 -17 50
-15 29 2 32 -1 47 -47 8 -28 20 -51 26 -53 25 -9 69 168 83 340 13 144 27 266
36 301 8 33 -13 35 -26 3 -5 -14 -9 -16 -9 -6 -1 18 33 125 56 179 35 83 76
166 87 180 7 8 13 28 14 44 2 36 37 68 67 60 14 -3 32 3 51 18 16 13 44 33 61
46 l33 23 -4 -23 c-3 -13 -5 -26 -5 -29 -1 -3 -19 -13 -40 -23 -42 -18 -122
-85 -86 -72 18 7 18 5 -3 -17 -35 -37 -27 -53 13 -23 23 18 44 26 66 24 19 -1
34 3 37 10 4 12 81 52 101 52 6 0 11 -8 12 -17 4 -68 8 -88 18 -91 14 -5 14
-39 0 -47 -6 -4 -8 -13 -5 -20 2 -7 -1 -18 -7 -24 -9 -9 -9 -14 2 -20 8 -5 10
-14 6 -21 -6 -9 -9 -9 -16 1 -6 11 -9 10 -14 -4 -4 -9 0 -23 9 -32 18 -19 21
-48 6 -76 -6 -11 -8 -24 -4 -31 4 -6 12 1 20 18 l12 29 1 -31 c1 -28 4 -31 26
-26 28 5 31 14 11 32 -17 13 -11 36 18 67 46 47 50 54 35 64 -11 7 -10 9 4 9
18 0 23 15 7 25 -6 4 -5 14 4 28 8 12 19 40 26 62 7 22 16 42 21 45 4 3 17 39
28 79 16 63 26 81 64 117 41 38 68 96 53 111 -3 3 2 12 10 20 8 8 11 19 8 25
-4 6 -2 8 4 4 5 -3 12 -1 14 6 7 20 -3 58 -16 58 -6 0 6 15 26 33 32 28 40 45
54 108 29 128 32 169 34 354 1 99 5 236 8 305 4 69 4 211 -1 315 -12 311 -9
435 18 620 2 11 4 36 4 55 1 28 4 32 12 20 8 -11 12 -12 16 -2 2 6 11 12 19
12 8 0 18 8 21 18 10 27 41 63 45 52 6 -19 0 135 -7 177 -5 30 -14 44 -28 49
-21 7 -47 -17 -47 -42 0 -7 -13 -17 -30 -23 -20 -7 -30 -17 -30 -30 0 -12 -4
-21 -8 -21 -5 0 -9 14 -9 31 0 19 -6 35 -17 41 -10 6 -16 21 -16 41 1 44 -11
97 -20 97 -37 0 -53 86 -25 139 8 16 11 32 7 35 -3 4 1 4 10 1 12 -5 20 -30
28 -93 l13 -87 13 46 c11 36 21 48 49 62 32 15 35 21 36 59 2 60 3 53 -15 163
-47 292 -95 481 -121 471 -7 -2 -16 2 -19 10 -3 9 -10 13 -14 10 -5 -3 -7 6
-4 20 4 23 5 23 18 7 21 -28 17 -6 -17 89 -26 72 -34 86 -45 77 -11 -9 -15 -5
-21 21 -6 31 -7 32 -20 15 -12 -18 -13 -18 -13 1 0 11 5 25 12 32 10 10 8 16
-4 29 -16 15 -16 17 -1 28 15 11 15 14 0 36 -16 21 -17 22 -17 4 0 -16 -5 -13
-20 13 -19 31 -40 36 -40 9 0 -7 4 -6 10 3 8 12 10 11 10 -7 0 -12 5 -25 10
-28 6 -3 10 -13 10 -21 0 -8 -4 -14 -10 -14 -5 0 -10 7 -10 15 0 8 -7 15 -15
15 -9 0 -15 9 -15 24 0 13 -10 36 -22 51 -12 16 -24 38 -25 49 -5 33 -13 32
-13 -2 0 -17 4 -33 9 -37 6 -3 13 -27 16 -53 4 -26 17 -72 31 -103 25 -60 30
-89 14 -89 -5 0 -14 8 -20 18 -10 15 -11 15 -4 -3 17 -48 32 -128 27 -141 -11
-30 18 -100 53 -128 29 -23 34 -24 34 -9 0 39 31 -28 41 -89 6 -34 12 -65 15
-70 12 -19 46 -168 59 -258 18 -118 18 -113 2 -107 -7 2 -23 -4 -37 -15 -18
-15 -24 -31 -28 -73 -3 -40 -10 -59 -28 -76 -13 -12 -24 -30 -24 -40 0 -10
-10 -19 -25 -23 -43 -11 -27 -23 23 -18 l49 4 29 -70 c19 -46 37 -75 51 -81
15 -7 23 -19 23 -35 0 -35 -15 -40 -34 -11 -23 35 -48 33 -44 -2 2 -20 9 -29
26 -31 13 -2 27 -14 32 -27 5 -13 18 -30 30 -38 16 -11 23 -29 27 -71 4 -36 2
-56 -5 -56 -5 0 -12 6 -15 14 -6 16 -45 28 -52 16 -3 -5 4 -12 16 -15 44 -14
75 -150 53 -232 -7 -27 -24 -21 -24 8 0 25 -27 79 -40 79 -18 0 -11 -39 11
-61 16 -16 19 -27 14 -52 -4 -18 -10 -36 -15 -40 -11 -12 -56 2 -76 24 -36 39
-70 15 -42 -30 13 -22 1 -38 -43 -58 -15 -6 -33 -25 -40 -42 -17 -37 -39 -44
-68 -20 -13 11 -29 19 -37 19 -8 0 -14 4 -14 9 0 15 -32 22 -46 10 -8 -6 -14
-8 -14 -3 1 27 30 127 40 140 20 24 38 16 43 -18 l4 -33 1 36 c1 20 9 50 17
66 15 30 12 63 -6 63 -5 0 -9 5 -9 10 0 6 11 10 25 10 31 0 34 29 5 37 -24 6
-24 6 -6 41 16 33 27 110 16 117 -4 2 -8 28 -9 57 -3 84 -9 128 -20 141 -5 7
-11 37 -12 67 -3 56 -14 84 -30 74 -5 -3 -25 0 -44 6 -50 17 -79 -1 -72 -43 3
-18 13 -70 22 -117 19 -103 12 -300 -11 -300 -7 0 -18 8 -23 18 -9 16 -15 243
-12 430 1 51 -4 80 -14 95 -20 28 -20 67 0 67 8 0 15 -5 15 -12 0 -9 3 -9 12
0 10 10 10 15 -1 21 -11 7 -11 18 -1 61 8 35 9 55 2 62 -15 15 -29 2 -37 -30
-7 -33 -49 -82 -71 -82 -8 0 -17 -7 -20 -15 -8 -20 -94 -21 -94 -1 0 8 6 16
14 19 27 11 40 186 27 368 -13 197 -13 202 -2 195 21 -13 28 -219 16 -458 -3
-60 -1 -99 5 -103 17 -10 77 47 95 89 10 24 13 50 10 67 -5 22 -3 29 8 29 29
0 33 144 12 420 -3 36 -9 126 -15 200 -5 74 -13 176 -17 225 -3 50 -6 93 -5
98 1 4 -4 6 -10 5 -8 -2 -20 25 -31 72 -11 41 -22 77 -27 80 -11 7 -45 107
-59 170 -20 88 -31 110 -55 110 -25 0 -46 36 -77 134 -11 32 -28 74 -40 93
-18 28 -23 32 -36 21 -20 -17 -79 -20 -91 -5 -5 7 -18 37 -30 67 -15 42 -24
54 -38 52 -19 -2 -31 18 -68 110 -20 50 -122 154 -130 133 -3 -9 -16 -19 -28
-24 -19 -7 -30 -3 -61 28 -51 48 -70 85 -62 122 4 16 9 29 11 29 21 0 68 -38
99 -79 43 -57 54 -60 29 -10 -10 19 -20 40 -24 48 -3 8 -31 28 -61 44 -67 36
-89 55 -89 77 0 32 25 43 57 26 49 -25 121 -100 129 -131 8 -34 22 -55 36 -55
5 0 6 9 3 20 -3 11 -2 20 4 20 5 0 15 -16 21 -35 15 -47 35 -59 27 -16 l-7 33
48 -42 c124 -109 216 -246 366 -547 45 -91 114 -293 116 -341 0 -4 7 2 15 12
21 28 19 70 -11 182 -15 55 -28 115 -29 135 -5 61 -16 98 -53 178 -38 81 -102
169 -89 121 23 -79 18 -85 -17 -25 -20 33 -36 65 -36 72 0 19 -72 146 -93 165
-16 14 -17 21 -8 32 14 16 4 43 -23 66 -20 16 -20 7 -1 -31 9 -16 13 -34 10
-39 -7 -12 12 -52 57 -124 39 -61 45 -76 28 -76 -9 0 -49 53 -80 109 -8 14
-35 61 -59 104 -67 117 -121 162 -121 100 -1 -32 -3 -30 -59 62 -34 56 -64 74
-54 33 3 -13 10 -29 16 -36 5 -7 7 -15 4 -18 -3 -3 -13 8 -23 25 -10 17 -21
31 -24 31 -4 0 -53 30 -111 67 -128 82 -236 133 -398 190 -113 39 -133 43
-215 42 -50 0 -97 -3 -104 -6z m363 -165 c94 -38 116 -51 103 -59 -7 -4 -18
-3 -25 3 -9 7 -13 7 -13 -1 0 -8 -5 -9 -18 -2 -14 7 -25 6 -39 -4 -17 -12 -23
-12 -41 1 -12 8 -22 24 -22 35 0 12 -10 30 -22 40 l-23 20 25 -6 c14 -3 48
-15 75 -27z m-11 -183 c20 -8 36 -20 36 -25 0 -14 -5 -13 -56 10 -67 31 -50
44 20 15z m22 -50 c57 -26 75 -48 55 -68 -6 -6 -11 -19 -11 -29 0 -10 -3 -18
-7 -18 -19 0 -133 79 -124 85 6 3 8 17 5 31 -8 32 11 32 82 -1z m-396 -365 c0
-5 -4 -10 -10 -10 -5 0 -10 5 -10 10 0 6 5 10 10 10 6 0 10 -4 10 -10z m-160
-10 c0 -5 -7 -10 -16 -10 -8 0 -12 5 -9 10 3 6 10 10 16 10 5 0 9 -4 9 -10z
m610 -10 c0 -5 -2 -10 -4 -10 -3 0 -8 5 -11 10 -3 6 -1 10 4 10 6 0 11 -4 11
-10z m-574 -28 c-7 -19 -56 -38 -56 -21 0 5 9 9 19 9 11 0 23 9 26 21 4 11 9
18 12 16 3 -3 2 -14 -1 -25z m567 -12 c16 -22 25 -40 20 -40 -4 0 -21 18 -36
40 -16 22 -25 40 -20 40 4 0 21 -18 36 -40z m-188 11 c3 -5 22 -15 43 -22 37
-11 81 -53 82 -76 0 -23 -45 -44 -71 -34 -29 11 -129 103 -129 119 0 9 19 16
57 21 6 0 14 -3 18 -8z m149 -22 c14 -17 26 -35 26 -42 0 -13 -48 30 -61 56
-16 28 7 20 35 -14z m-734 1 c0 -5 -4 -10 -10 -10 -5 0 -10 5 -10 10 0 6 5 10
10 10 6 0 10 -4 10 -10z m1428 -22 c43 -73 114 -219 108 -225 -12 -12 -47 31
-97 119 -28 48 -54 90 -60 93 -5 4 -9 15 -9 26 0 31 36 23 58 -13z m-1318 2
c0 -5 -4 -10 -10 -10 -5 0 -10 5 -10 10 0 6 5 10 10 10 6 0 10 -4 10 -10z m70
-17 c0 -2 -7 -17 -15 -33 -16 -30 -46 -39 -73 -21 -10 6 -6 12 14 26 20 13 28
14 34 5 5 -8 9 -7 14 5 3 9 4 21 1 26 -4 5 1 6 9 3 9 -3 16 -8 16 -11z m1534
-15 c9 -17 14 -33 12 -36 -4 -4 -36 51 -36 63 0 13 10 3 24 -27z m-1773 -11
c-8 -8 -11 -7 -11 4 0 9 3 19 7 23 4 4 9 2 11 -4 3 -7 -1 -17 -7 -23z m86 8
c8 -21 3 -24 -29 -18 -17 3 -25 10 -21 19 7 19 42 18 50 -1z m185 -30 c0 -5
-5 -11 -11 -13 -6 -2 -11 4 -11 13 0 9 5 15 11 13 6 -2 11 -8 11 -13z m-312
-17 c0 -4 12 -3 26 2 18 7 30 7 39 0 6 -5 15 -7 18 -3 4 3 7 1 7 -5 0 -7 6
-12 13 -12 7 0 18 -9 24 -19 9 -15 9 -23 -2 -37 -20 -27 -18 -36 5 -29 14 4
20 2 20 -9 0 -19 -23 -33 -28 -18 -2 7 -10 12 -18 12 -17 0 -17 2 -3 34 14 29
-2 59 -27 49 -8 -3 -14 1 -14 11 0 24 -26 19 -48 -9 -11 -14 -23 -25 -27 -25
-4 0 -5 11 -3 25 4 17 1 25 -8 25 -8 0 -14 4 -14 9 0 6 9 9 20 8 11 -1 20 -5
20 -9z m362 -14 c-12 -8 -22 -24 -22 -35 0 -11 -7 -19 -16 -19 -11 0 -14 5
-10 16 3 9 6 22 6 29 0 12 14 18 55 24 5 0 -1 -6 -13 -15z m-187 -6 c26 -12
32 -23 16 -32 -15 -10 -39 4 -44 25 -6 22 -6 22 28 7z m-215 -24 c0 -3 -5 -14
-10 -25 -11 -20 3 -28 15 -9 10 15 35 12 35 -5 0 -16 -43 -21 -74 -9 -20 8
-20 18 0 38 15 16 34 21 34 10z m280 -4 c0 -5 -7 -7 -15 -4 -8 4 -15 8 -15 10
0 2 7 4 15 4 8 0 15 -4 15 -10z m162 -5 c0 -5 -5 -11 -11 -13 -6 -2 -11 4 -11
13 0 9 5 15 11 13 6 -2 11 -8 11 -13z m-342 -15 c0 -11 -4 -20 -9 -20 -11 0
-22 26 -14 34 12 12 23 5 23 -14z m-264 -12 c8 -12 -24 -40 -37 -32 -5 3 -9
14 -9 25 0 21 34 27 46 7z m429 -29 c-44 -19 -65 -23 -65 -11 0 18 21 27 62
28 l43 1 -40 -18z m175 -14 c11 -3 20 -11 20 -16 0 -12 -3 -11 -31 4 -42 22
-49 28 -44 38 4 5 13 3 21 -5 8 -8 23 -18 34 -21z m-320 15 c0 -6 -11 -10 -25
-10 -14 0 -28 -7 -31 -15 -7 -17 -13 -18 -34 -5 -13 8 -12 11 4 23 22 16 86
21 86 7z m242 -12 c-9 -9 -15 -9 -24 0 -9 9 -7 12 12 12 19 0 21 -3 12 -12z
m-352 -8 c0 -5 -9 -10 -21 -10 -11 0 -17 5 -14 10 3 6 13 10 21 10 8 0 14 -4
14 -10z m-50 -9 c0 -10 -30 -24 -37 -17 -3 3 -2 9 2 15 8 13 35 15 35 2z m145
-10 c3 -5 1 -12 -5 -16 -5 -3 -10 1 -10 9 0 18 6 21 15 7z m-65 -27 c0 -8 -4
-14 -10 -14 -5 0 -10 5 -10 10 0 6 -12 10 -26 10 -14 0 -23 4 -20 8 8 14 66 1
66 -14z m180 6 c0 -5 -4 -10 -9 -10 -6 0 -13 5 -16 10 -3 6 1 10 9 10 9 0 16
-4 16 -10z m105 0 c3 -5 -1 -10 -9 -10 -9 0 -16 5 -16 10 0 6 4 10 9 10 6 0
13 -4 16 -10z m115 -6 c0 -8 -5 -12 -10 -9 -6 4 -8 11 -5 16 9 14 15 11 15 -7z
m-536 -9 c-4 -8 -8 -15 -10 -15 -2 0 -4 7 -4 15 0 8 4 15 10 15 5 0 7 -7 4
-15z m46 -25 c0 -11 -7 -23 -15 -26 -8 -4 -15 -12 -15 -20 0 -8 -4 -14 -10
-14 -15 0 -12 18 7 51 20 34 33 37 33 9z m895 -55 c39 -9 87 -19 107 -22 36
-5 78 -34 78 -53 0 -13 6 -13 -81 9 -42 11 -118 22 -170 24 -52 3 -80 3 -64 1
35 -6 128 -29 203 -51 36 -10 51 -18 44 -25 -11 -11 24 -53 43 -53 5 0 11 -8
13 -17 2 -10 -1 -18 -7 -18 -6 0 -11 -9 -11 -20 0 -11 5 -20 11 -20 5 0 7 -4
4 -10 -3 -5 -2 -10 3 -10 5 0 12 -9 15 -20 3 -13 0 -20 -10 -20 -8 0 -11 -4
-8 -10 3 -5 10 -33 15 -62 4 -29 11 -61 15 -70 5 -13 2 -18 -10 -18 -9 0 -13
-4 -10 -10 3 -5 -1 -10 -9 -10 -9 0 -16 -4 -16 -10 0 -5 -9 -10 -21 -10 -12 0
-23 -8 -26 -20 -3 -11 -10 -20 -17 -20 -6 0 -31 -16 -56 -36 -24 -19 -64 -41
-88 -47 -24 -6 -48 -20 -53 -29 -5 -10 -18 -18 -29 -18 -10 0 -28 -15 -41 -36
-21 -35 -28 -37 -71 -19 -14 5 -18 2 -18 -13 0 -12 -9 -23 -20 -27 -11 -3 -20
-13 -20 -21 0 -8 -6 -14 -14 -14 -7 0 -21 -11 -30 -25 -19 -29 -13 -90 10 -99
8 -3 14 -16 14 -30 0 -13 4 -26 9 -28 4 -1 10 -22 13 -45 5 -31 2 -46 -10 -55
-8 -7 -17 -12 -18 -11 -11 7 -62 -21 -58 -31 3 -7 -13 -16 -42 -24 -52 -14
-69 -8 -40 14 17 12 18 14 3 14 -9 0 -17 4 -17 10 0 5 -8 6 -17 3 -17 -7 -17
-6 0 11 13 14 17 35 17 101 0 75 -3 87 -24 110 -19 20 -31 25 -59 22 -20 -2
-42 -9 -49 -15 -8 -6 -19 -7 -27 -3 -17 11 -183 5 -240 -8 -24 -5 -50 -7 -57
-4 -27 10 -135 -30 -159 -59 l-24 -28 -6 33 c-4 18 -5 153 -3 300 2 147 0 267
-4 267 -19 0 -6 59 20 91 60 75 126 127 230 180 58 30 111 54 117 55 5 0 22 6
36 12 15 6 43 14 63 17 21 4 36 13 36 21 0 17 27 19 32 2 3 -8 9 -8 19 -2 47
30 465 37 584 9z m-1010 -14 c3 -5 1 -12 -5 -16 -5 -3 -10 1 -10 9 0 18 6 21
15 7z m143 -28 c-2 -9 -8 -18 -15 -20 -7 -3 -9 3 -6 16 6 25 26 28 21 4z m-95
-7 c6 -16 -2 -28 -14 -20 -12 7 -11 34 0 34 5 0 11 -6 14 -14z m1900 -86 c51
-134 58 -170 32 -170 -8 0 -17 10 -20 23 -19 90 -45 195 -51 212 -5 14 -4 17
4 10 5 -5 21 -39 35 -75z m-2003 15 c-7 -9 -15 -13 -17 -11 -7 7 7 26 19 26 6
0 6 -6 -2 -15z m35 -34 c-6 -5 -25 10 -25 20 0 5 6 4 14 -3 8 -7 12 -15 11
-17z m1980 -252 c28 -125 47 -241 41 -246 -13 -13 -76 33 -89 64 -23 58 -2
250 27 240 5 -2 15 -28 21 -58z m-520 21 c3 -5 1 -10 -4 -10 -6 0 -11 5 -11
10 0 6 2 10 4 10 3 0 8 -4 11 -10z m445 -172 c-1 -42 -1 -43 -15 -18 -19 33
-19 60 0 60 11 0 15 -11 15 -42z m-278 -35 c14 -16 28 -36 31 -46 10 -28 -25
-5 -57 38 -33 42 -12 49 26 8z m528 12 c16 -19 16 -86 1 -143 -16 -56 -27 -53
-30 8 -1 27 -6 61 -11 75 -10 26 2 75 19 75 4 0 14 -7 21 -15z m-70 -34 c12
-24 13 -101 1 -101 -12 0 -18 17 -26 74 -8 49 5 63 25 27z m504 -11 c-6 -6
-10 -2 -11 12 -2 16 1 18 10 9 7 -7 8 -14 1 -21z m-894 -67 c0 -12 -2 -12 -15
1 -8 8 -15 17 -15 20 0 3 7 3 15 0 8 -4 15 -13 15 -21z m902 5 c-7 -7 -12 -8
-12 -2 0 14 12 26 19 19 2 -3 -1 -11 -7 -17z m-1278 -23 c6 -16 -33 -37 -95
-50 -34 -7 -118 -38 -151 -56 -25 -13 -27 -12 -25 10 1 16 49 51 53 39 1 -1
10 4 20 13 19 17 59 31 129 48 57 13 62 13 69 -4z m576 -39 c0 -24 3 -51 6
-60 11 -29 24 -16 24 24 0 22 4 40 9 40 12 0 22 -130 11 -149 -6 -10 -10 -11
-10 -3 0 6 -5 12 -11 12 -15 0 -7 -75 9 -76 24 -3 26 -4 14 -16 -14 -14 -16
-77 -3 -110 5 -13 12 -56 16 -97 8 -85 -6 -91 -25 -11 -7 28 -17 53 -22 56 -6
4 -7 -2 -3 -16 18 -58 42 -196 35 -204 -15 -15 -38 38 -49 111 -6 39 -11 74
-11 77 0 3 -4 6 -10 6 -5 0 -10 -10 -10 -21 0 -18 -2 -19 -15 -9 -8 7 -15 29
-15 50 0 21 -7 51 -15 66 -25 48 -17 82 13 52 6 -6 15 -8 19 -5 9 10 -16 33
-44 41 -19 6 -22 3 -25 -25 -2 -18 -9 -35 -17 -37 -11 -4 -13 4 -8 36 4 25 2
52 -7 73 -18 46 -30 143 -16 134 5 -3 10 -12 10 -20 0 -8 5 -26 12 -40 9 -20
18 -25 49 -25 56 0 75 33 71 122 -1 41 2 68 8 68 5 0 10 -20 10 -44z m780 -22
c0 -8 -4 -14 -10 -14 -5 0 -10 9 -10 21 0 11 5 17 10 14 6 -3 10 -13 10 -21z
m-817 -61 c-3 -7 -9 -13 -14 -13 -11 0 -12 34 -2 43 9 10 22 -13 16 -30z m837
18 c0 -12 -20 -25 -27 -18 -7 7 6 27 18 27 5 0 9 -4 9 -9z m-1055 -19 c0 -18
-20 -15 -23 4 -3 10 1 15 10 12 7 -3 13 -10 13 -16z m965 -47 c0 -8 -4 -15
-10 -15 -5 0 -10 7 -10 15 0 8 5 15 10 15 6 0 10 -7 10 -15z m-1676 -47 c-17
-18 -41 -44 -52 -57 -28 -32 -28 -20 0 23 19 29 61 65 77 66 3 0 -9 -15 -25
-32z m185 -1 c8 -11 5 -19 -14 -37 -33 -31 -32 -43 5 -35 22 5 30 3 30 -8 0
-7 11 -36 25 -62 25 -50 22 -64 -15 -65 -12 -1 -11 -3 3 -11 9 -5 22 -7 27 -4
6 3 10 1 10 -6 0 -10 3 -10 12 -1 18 18 28 15 28 -8 0 -17 6 -20 33 -19 17 1
56 8 85 17 51 15 81 10 52 -8 -13 -8 -12 -10 2 -10 9 0 18 -5 20 -11 5 -16 71
33 86 64 7 15 22 32 33 37 10 6 19 17 19 25 0 8 6 15 14 15 18 0 27 -70 16
-134 -24 -144 -87 -225 -223 -285 -104 -47 -222 -47 -322 0 -127 60 -238 244
-206 344 9 28 9 27 10 -19 1 -59 52 -170 106 -233 19 -23 60 -53 90 -67 68
-33 74 -33 36 0 -17 14 -31 34 -31 45 0 10 -9 24 -20 31 -11 7 -20 16 -20 21
0 4 5 5 11 1 6 -3 3 5 -6 20 -17 25 -14 63 4 52 5 -4 11 0 14 6 3 10 9 10 27
0 18 -11 24 -11 30 -2 4 7 14 9 21 5 8 -4 1 4 -15 19 -35 31 -56 33 -63 7 -3
-11 -12 -21 -21 -23 -19 -4 -66 45 -76 80 -6 16 -13 21 -26 17 -14 -5 -19 1
-22 30 -2 20 0 39 5 42 5 3 6 21 2 40 -5 28 -2 40 16 59 12 13 28 24 35 24 6
0 19 11 28 25 9 14 22 25 29 25 9 0 9 -2 0 -8 -17 -10 -29 -92 -14 -92 6 0 11
16 11 35 0 28 4 35 20 35 10 0 23 6 27 14 7 12 23 19 54 25 4 0 12 -5 18 -12z
m259 -49 c5 -7 11 -22 14 -33 2 -11 21 -29 42 -41 50 -28 59 -45 40 -72 -19
-28 -40 -27 -84 2 -29 19 -35 29 -35 62 -1 21 -5 51 -9 67 -6 21 -5 27 7 27 8
0 19 -6 25 -12z m-118 -28 c0 -5 -4 -10 -10 -10 -5 0 -10 5 -10 10 0 6 5 10
10 10 6 0 10 -4 10 -10z m320 -27 c0 -18 -17 -16 -24 3 -8 22 4 40 15 23 5 -8
9 -20 9 -26z m-754 -23 c-14 -22 -26 -44 -26 -50 0 -5 -9 -10 -20 -10 -11 0
-20 5 -20 10 0 6 6 10 14 10 8 0 27 20 42 44 16 25 30 43 33 41 2 -3 -8 -23
-23 -45z m389 30 c0 -22 -39 -19 -43 3 -3 15 1 18 20 15 12 -2 23 -10 23 -18z
m-911 -30 c15 -15 -10 -29 -54 -31 -19 0 -46 -5 -60 -9 -24 -8 -24 -8 7 -9 34
-1 57 -21 24 -21 -14 0 -19 -6 -18 -20 1 -23 2 -23 44 -11 23 7 37 5 52 -6 12
-8 25 -11 31 -8 5 3 18 1 27 -4 14 -8 10 -10 -24 -11 l-41 0 2 -40 c1 -21 5
-42 9 -46 12 -13 7 -51 -8 -64 -12 -10 -19 -10 -27 -2 -18 18 -38 14 -38 -8 0
-11 5 -20 11 -20 5 0 9 -10 7 -22 -2 -11 3 -23 10 -25 7 -3 12 5 12 21 0 35
14 39 38 11 26 -30 36 -31 62 -5 12 12 20 15 20 8 0 -8 8 -4 18 7 9 12 36 34
59 49 40 27 42 30 28 49 -8 12 -15 28 -15 36 0 26 38 -19 57 -68 13 -34 18
-74 18 -156 0 -97 -3 -116 -24 -158 -58 -112 -228 -198 -360 -182 -64 8 -135
36 -170 68 -40 37 -101 126 -129 185 -20 43 -26 73 -26 124 0 40 5 73 12 80 9
9 12 5 12 -19 0 -46 17 -49 29 -6 15 52 14 73 -4 73 -11 0 -14 7 -9 25 3 14 2
25 -3 25 -11 0 -66 -56 -63 -64 4 -14 -12 -66 -21 -66 -12 0 -12 -47 1 -55 6
-3 10 -18 10 -33 l-1 -27 -12 23 c-7 12 -16 20 -19 17 -7 -8 -48 80 -48 103 0
35 94 102 197 142 26 10 82 32 123 48 41 16 84 32 94 36 10 3 16 9 14 12 -3 3
-47 -7 -98 -21 -50 -15 -95 -24 -98 -20 -10 10 77 85 98 85 10 0 31 6 47 13
35 14 182 12 197 -3z m562 -24 c0 -15 -5 -21 -10 -16 -5 5 -6 16 -3 24 9 23
15 19 13 -8z m942 -3 c6 -16 14 -50 17 -78 4 -27 13 -58 21 -69 8 -11 14 -33
14 -48 0 -16 9 -36 20 -45 19 -17 26 -43 14 -55 -14 -15 -45 9 -67 51 -31 60
-37 87 -43 188 -4 84 5 105 24 56z m404 -15 c5 -48 0 -67 -13 -47 -11 18 -11
89 0 89 5 0 11 -19 13 -42z m-1687 -78 c3 -5 1 -10 -4 -10 -6 0 -11 5 -11 10
0 6 2 10 4 10 3 0 8 -4 11 -10z m395 -52 c0 -14 -18 -9 -24 8 -11 28 -6 39 9
20 8 -11 15 -23 15 -28z m-318 10 c-5 -7 -12 -24 -15 -38 -4 -22 -4 -21 -6 6
-1 31 5 44 22 44 6 0 5 -5 -1 -12z m-188 -35 c20 -10 35 -22 35 -28 0 -5 -20
-20 -44 -33 -43 -21 -45 -21 -45 -3 0 10 -3 33 -6 50 -8 37 7 40 60 14z m1366
-108 c0 -5 -5 -3 -10 5 -5 8 -10 20 -10 25 0 6 5 3 10 -5 5 -8 10 -19 10 -25z
m330 23 c0 -7 -5 -49 -12 -95 -12 -81 -13 -83 -40 -83 -32 0 -34 7 -12 58 9
20 22 58 30 85 13 43 34 64 34 35z m-252 -126 c17 -32 19 -42 9 -50 -7 -6 -17
-8 -23 -4 -15 11 -34 60 -34 89 0 32 17 20 48 -35z m-2073 -59 c17 -37 54 -96
83 -130 58 -70 50 -87 -10 -22 -21 23 -41 40 -44 37 -2 -3 12 -37 32 -77 35
-66 40 -92 15 -77 -6 4 -29 38 -52 77 -29 50 -41 83 -43 117 -2 26 -10 68 -18
95 -24 73 2 59 37 -20z m2160 53 c44 -19 45 -41 3 -50 -35 -7 -48 4 -48 42 0
26 1 26 45 8z m285 -86 c0 -5 -5 -10 -11 -10 -5 0 -7 5 -4 10 3 6 8 10 11 10
2 0 4 -4 4 -10z m-52 -62 c-3 -46 -6 -53 -25 -56 -32 -5 -35 40 -6 85 24 37
34 27 31 -29z m-1368 -122 c0 -3 -4 -8 -10 -11 -5 -3 -10 -1 -10 4 0 6 5 11
10 11 6 0 10 -2 10 -4z m1388 -9 c7 -7 16 -37 23 -66 9 -44 8 -56 -5 -76 -23
-34 -36 -31 -36 8 0 21 -9 44 -24 62 l-24 28 21 29 c23 32 30 34 45 15z m17
-322 c8 -81 -6 -112 -43 -101 -19 6 -42 56 -42 92 0 17 64 93 72 85 3 -3 9
-37 13 -76z m139 -151 c9 -23 -10 -95 -39 -145 -18 -32 -23 -53 -19 -75 8 -44
-37 -335 -66 -430 -6 -17 -10 -40 -10 -52 0 -23 -16 -30 -22 -11 -7 21 -38 -3
-38 -30 0 -14 -4 -41 -10 -59 -6 -23 -6 -39 2 -52 13 -20 3 -65 -32 -142 -13
-31 -19 -37 -19 -21 -1 12 -5 25 -11 28 -5 3 -10 14 -10 24 0 10 -7 24 -15 31
-11 9 -14 22 -10 42 6 26 4 28 -24 28 -16 0 -33 5 -36 10 -10 16 -23 12 -36
-12 -10 -18 -9 -20 5 -15 14 5 15 3 6 -13 -15 -28 -12 -38 12 -42 55 -8 107
-163 75 -224 l-15 -29 -12 30 c-18 49 -49 105 -70 127 -33 36 -33 13 0 -35 32
-47 60 -117 60 -148 0 -16 -49 -49 -72 -49 -5 0 -16 -7 -24 -15 -20 -19 -44
-8 -44 21 0 13 -8 31 -17 40 -26 23 -92 64 -103 64 -18 0 -10 21 28 73 57 78
235 356 274 427 38 69 80 140 85 140 2 0 1 -5 -2 -10 -4 -6 -2 -17 5 -25 9
-10 8 -21 -4 -44 -22 -41 -20 -51 8 -51 33 0 39 12 43 89 6 97 9 113 21 145 7
15 25 77 40 136 16 60 33 115 39 122 6 7 14 40 17 73 9 72 15 95 26 95 4 0 11
-7 14 -16z m-124 -95 c0 -17 -4 -28 -10 -24 -5 3 -10 17 -10 31 0 13 5 24 10
24 6 0 10 -14 10 -31z m156 -26 c-1 -27 -10 -64 -19 -83 l-16 -35 5 70 c6 81
10 95 23 95 5 0 8 -21 7 -47z m-150 -120 c-10 -10 -19 5 -10 18 6 11 8 11 12
0 2 -7 1 -15 -2 -18z m124 -24 c0 -11 -4 -17 -10 -14 -5 3 -10 13 -10 21 0 8
5 14 10 14 6 0 10 -9 10 -21z m-1951 -39 c13 -24 21 -52 19 -72 -4 -43 -26
-48 -34 -8 -5 25 -11 31 -25 27 -20 -5 -26 7 -10 18 5 3 7 21 4 40 -8 49 17
46 46 -5z m177 -22 c4 -7 3 -8 -4 -4 -7 4 -12 1 -12 -8 0 -8 6 -16 13 -19 8
-3 9 -8 1 -16 -8 -9 -15 -6 -29 9 -14 16 -15 22 -5 35 15 18 26 19 36 3z
m1802 -80 c1 -19 -4 -29 -19 -33 -25 -8 -35 0 -22 17 6 7 9 29 7 48 -4 33 -4
34 14 15 9 -11 18 -32 20 -47z m-1861 17 c33 -20 65 -79 56 -102 -5 -13 -54
10 -95 45 -18 15 -24 62 -11 76 8 7 6 8 50 -19z m1818 6 c3 -5 1 -12 -5 -16
-5 -3 -10 1 -10 9 0 18 6 21 15 7z m401 -75 c7 -17 -45 -326 -57 -341 -4 -6
-11 -38 -15 -73 -7 -63 -24 -96 -24 -46 l0 28 -20 -22 c-11 -12 -20 -28 -20
-37 0 -8 -4 -15 -8 -15 -5 0 -14 48 -21 108 -7 59 -16 126 -22 149 -12 55 -12
120 1 128 6 4 10 12 9 18 -3 28 2 44 26 71 26 31 85 47 85 23 0 -6 5 -4 11 6
12 21 47 23 55 3z m-2389 -36 c1 -11 -4 -20 -13 -20 -17 0 -18 12 -2 28 7 7
12 12 13 12 0 0 1 -9 2 -20z m2120 -117 c-3 -10 -5 -4 -5 12 0 17 2 24 5 18 2
-7 2 -21 0 -30z m10 -70 c-3 -10 -5 -4 -5 12 0 17 2 24 5 18 2 -7 2 -21 0 -30z
m-2012 -3 c3 -5 -1 -10 -9 -10 -9 0 -16 5 -16 10 0 6 4 10 9 10 6 0 13 -4 16
-10z m35 0 c0 -5 -5 -10 -11 -10 -5 0 -7 5 -4 10 3 6 8 10 11 10 2 0 4 -4 4
-10z m1999 -88 c0 -30 -2 -33 -9 -17 -12 28 -12 67 0 60 6 -3 10 -23 9 -43z
m41 -266 c6 -43 18 -96 25 -117 20 -56 44 -225 59 -419 l6 -75 -15 70 c-8 39
-18 106 -21 150 -4 44 -11 85 -16 91 -5 7 -13 47 -18 91 -9 83 -10 88 -34 193
-8 36 -16 103 -19 150 l-6 85 13 -70 c8 -38 19 -105 26 -149z m-3150 59 c0
-24 4 -55 10 -69 14 -39 -26 -126 -45 -96 -11 18 -7 137 6 180 15 49 29 42 29
-15z m-130 -5 c0 -5 -2 -10 -4 -10 -3 0 -8 5 -11 10 -3 6 -1 10 4 10 6 0 11
-4 11 -10z m2489 -227 c42 -18 61 -57 61 -122 0 -35 -15 -42 -25 -11 -4 12
-11 17 -18 13 -25 -16 -167 -23 -167 -9 0 12 97 146 105 146 3 0 22 -8 44 -17z
m-393 -181 c-2 -99 -76 -142 -76 -44 0 54 24 85 71 91 3 1 6 -20 5 -47z m211
8 c-9 -13 -13 -35 -11 -58 6 -44 -10 -76 -26 -52 -7 12 -12 12 -22 2 -6 -6
-22 -12 -34 -12 -13 0 -26 -5 -30 -11 -5 -8 3 -10 26 -7 28 4 30 3 17 -7 -12
-8 -17 -27 -17 -57 0 -24 -5 -49 -11 -55 -8 -8 -8 -16 0 -30 9 -16 10 -15 11
10 0 29 17 37 26 12 3 -8 21 -19 40 -25 l35 -12 -27 -46 c-15 -26 -30 -49 -34
-52 -13 -10 -32 -70 -27 -84 4 -9 -5 -15 -28 -19 -23 -4 -49 -21 -82 -55 -27
-27 -58 -51 -68 -54 -11 -2 -20 -10 -21 -18 -2 -31 -17 -50 -39 -50 -17 0 -24
7 -28 28 -3 15 -1 29 4 30 5 2 9 13 9 25 l0 22 -18 -22 c-12 -16 -23 -21 -39
-17 -19 5 -23 13 -23 43 0 20 -3 53 -6 74 -5 29 -3 37 9 37 8 0 18 7 21 16 5
13 16 15 61 9 30 -3 55 -4 55 -1 0 3 -11 17 -25 32 -18 19 -22 30 -14 35 7 4
10 13 7 21 -4 10 2 14 20 13 14 0 27 -6 30 -12 2 -7 10 -13 18 -13 8 0 14 -4
14 -10 0 -19 86 -11 105 10 16 18 16 20 -4 46 -12 15 -32 33 -44 39 -12 6 -21
17 -19 23 1 7 -9 12 -23 12 -32 0 -32 10 0 40 13 12 29 37 35 54 5 17 29 49
52 71 23 22 38 32 35 23 -23 -61 -23 -61 60 40 35 43 58 52 30 12z m-2587 -50
c0 -5 -4 -10 -10 -10 -5 0 -10 5 -10 10 0 6 5 10 10 10 6 0 10 -4 10 -10z m60
-10 c0 -12 -49 -44 -56 -37 -3 3 0 14 6 24 13 19 50 29 50 13z m2170 -10 c0
-15 -23 -60 -30 -60 -9 0 -44 39 -39 44 27 22 69 33 69 16z m-2115 -50 c7 -23
-7 -39 -48 -58 -35 -15 -37 -15 -37 2 0 9 -7 12 -20 9 -15 -4 -19 -2 -14 10 6
15 58 40 67 31 2 -2 10 2 17 11 17 20 27 19 35 -5z m845 5 c16 -19 0 -19 -26
0 -16 12 -16 14 -3 15 9 0 22 -7 29 -15z m1214 -17 c25 -33 26 -48 0 -48 -16
0 -56 59 -48 72 9 15 22 8 48 -24z m-71 -20 c8 -18 21 -39 30 -47 38 -31 8
-101 -42 -101 -38 0 -46 10 -57 64 -5 27 -14 51 -20 53 -8 3 -9 -10 -1 -47 12
-62 3 -75 -46 -66 -42 8 -54 21 -59 61 -3 29 1 32 82 72 47 24 88 43 92 43 4
0 14 -15 21 -32z m216 -25 c-5 -16 -22 -45 -37 -67 -18 -26 -26 -50 -25 -76 2
-31 -5 -44 -42 -83 -47 -50 -85 -62 -85 -27 0 11 -5 29 -12 40 -10 16 -9 23
12 45 13 14 34 25 47 25 21 0 23 4 23 50 0 39 5 56 23 74 29 30 57 45 84 46
20 0 22 -3 12 -27z m1071 -18 c0 -37 -17 -56 -31 -34 -12 20 -11 53 3 67 17
17 28 5 28 -33z m-197 -5 c-5 -28 -4 -30 26 -30 35 0 38 -11 16 -53 -19 -38
-23 -79 -7 -84 9 -4 11 2 6 21 -9 36 4 32 20 -6 13 -30 12 -34 -13 -58 -14
-14 -32 -35 -40 -47 -12 -17 -23 -20 -75 -19 l-61 1 -5 40 c-5 34 -7 37 -13
18 -5 -12 -16 -25 -26 -28 -17 -5 -22 -13 -50 -75 -6 -14 -15 -32 -20 -40 -6
-8 -13 -40 -16 -71 -7 -63 -29 -103 -43 -81 -5 8 -5 31 0 55 5 23 13 58 17 78
4 21 18 49 29 64 12 15 22 36 22 45 0 26 37 104 42 89 6 -18 28 -1 28 21 0 13
5 17 15 14 9 -4 15 0 15 10 0 8 9 30 20 48 11 18 20 41 20 51 0 9 4 17 8 17 5
0 14 12 21 27 9 19 15 23 20 15 6 -10 11 -9 21 2 18 23 30 10 23 -24z m-1479
-6 c9 -3 16 -17 16 -30 0 -13 5 -33 12 -44 17 -27 9 -30 -51 -23 -44 5 -54 10
-66 34 -23 44 -8 65 52 68 12 0 28 -2 37 -5z m88 -27 c3 -6 4 -16 1 -24 -3 -7
2 -13 11 -13 18 0 11 -26 -10 -34 -14 -5 -64 37 -64 54 0 26 14 40 34 34 11
-4 24 -11 28 -17z m88 -17 c0 -34 -19 -40 -37 -10 -11 16 -10 21 5 29 27 16
32 13 32 -19z m431 -7 c-8 -15 -10 -15 -11 -2 0 17 10 32 18 25 2 -3 -1 -13
-7 -23z m309 -18 c-7 -8 -16 -15 -21 -15 -5 0 -9 7 -9 15 0 9 9 15 21 15 18 0
19 -2 9 -15z m1040 -29 c0 -2 -7 -9 -15 -16 -12 -10 -15 -10 -15 4 0 9 7 16
15 16 8 0 15 -2 15 -4z m-3853 -48 c-3 -8 -6 -5 -6 6 -1 11 2 17 5 13 3 -3 4
-12 1 -19z m1800 -20 c-3 -8 -6 -5 -6 6 -1 11 2 17 5 13 3 -3 4 -12 1 -19z
m450 -27 c13 -14 21 -34 19 -44 -2 -9 2 -24 10 -31 18 -19 18 -30 0 -23 -9 4
-16 -3 -20 -19 -8 -32 -24 -31 -32 4 -14 62 -27 98 -41 109 -9 7 -13 19 -9 28
8 22 44 10 73 -24z m-111 2 c7 -10 14 -30 14 -44 0 -49 12 -89 26 -89 8 0 14
9 14 20 0 11 5 20 10 20 6 0 10 -18 10 -40 0 -23 -5 -40 -11 -40 -6 0 -20 -11
-31 -25 -37 -47 -47 -28 -58 110 -8 109 -3 126 26 88z m-2119 -15 c-3 -8 -6
-5 -6 6 -1 11 2 17 5 13 3 -3 4 -12 1 -19z m3693 -8 c0 -5 -13 -16 -30 -25
-38 -19 -40 -6 -2 17 32 21 32 21 32 8z m-3100 -50 c10 -18 8 -20 -20 -20 -23
0 -30 4 -30 20 0 13 7 20 20 20 10 0 24 -9 30 -20z m2507 -17 c-3 -10 -5 -4
-5 12 0 17 2 24 5 18 2 -7 2 -21 0 -30z m497 18 c5 -7 -83 -71 -99 -71 -16 0
3 21 45 49 52 35 47 33 54 22z m-3546 -56 c-3 -3 -9 2 -12 12 -6 14 -5 15 5 6
7 -7 10 -15 7 -18z m5212 21 c0 -3 -4 -8 -10 -11 -5 -3 -10 -1 -10 4 0 6 5 11
10 11 6 0 10 -2 10 -4z m-5230 -48 c0 -5 -4 -8 -10 -8 -5 0 -10 10 -10 23 0
18 2 19 10 7 5 -8 10 -18 10 -22z m3446 -3 c-3 -8 -10 -15 -16 -15 -14 0 -12
37 3 43 15 5 21 -8 13 -28z m-3367 -85 c18 -41 38 -79 45 -85 7 -5 15 -32 18
-58 5 -46 5 -47 -10 -25 l-16 22 -6 -24 c-6 -22 -9 -18 -24 29 -17 50 -17 54
-2 63 15 9 15 12 -3 46 -21 38 -51 110 -51 120 0 17 22 -22 49 -88z m2878 68
c-3 -8 -6 -5 -6 6 -1 11 2 17 5 13 3 -3 4 -12 1 -19z m-797 -22 c0 -3 -4 -8
-10 -11 -5 -3 -10 -1 -10 4 0 6 5 11 10 11 6 0 10 -2 10 -4z m1390 -6 c0 -5
-4 -10 -10 -10 -5 0 -10 5 -10 10 0 6 5 10 10 10 6 0 10 -4 10 -10z m-624 -15
c-4 -13 -2 -14 14 -5 19 10 19 9 8 -15 -9 -21 -9 -28 0 -34 10 -6 10 -19 2
-56 -7 -32 -7 -52 -1 -58 7 -7 12 -1 17 17 3 14 10 26 15 26 5 0 9 9 9 20 0
11 5 20 10 20 30 0 -14 -88 -51 -104 -24 -10 -27 -15 -15 -19 20 -8 21 -37 1
-37 -8 0 -15 4 -15 8 0 14 -72 6 -81 -9 -5 -8 -9 -24 -9 -36 0 -13 -4 -23 -8
-23 -4 0 -14 -17 -21 -37 -8 -21 -19 -42 -25 -49 -13 -12 -29 -62 -44 -134
l-10 -45 -1 45 c-1 33 -4 41 -11 30 -5 -8 -10 -25 -10 -37 0 -13 -4 -23 -10
-23 -5 0 -10 24 -10 53 0 29 -7 77 -15 105 l-16 52 30 38 c16 20 32 47 36 60
3 12 12 22 20 22 8 0 17 9 20 21 4 13 12 18 22 15 8 -3 19 -6 25 -6 6 0 7 -19
3 -52 -4 -38 -3 -49 4 -38 6 8 11 29 11 45 0 37 35 133 74 203 28 50 45 69 32
37z m-2866 -66 c0 -6 -4 -7 -10 -4 -5 3 -10 11 -10 16 0 6 5 7 10 4 6 -3 10
-11 10 -16z m5207 -106 c-3 -10 -5 -2 -5 17 0 19 2 27 5 18 2 -10 2 -26 0 -35z
m10 -45 c-3 -8 -6 -5 -6 6 -1 11 2 17 5 13 3 -3 4 -12 1 -19z m-5087 -55 c0
-22 -16 -15 -28 12 -17 36 -15 41 8 20 11 -10 20 -24 20 -32z m5070 -65 c0
-10 -4 -18 -10 -18 -5 0 -10 11 -10 25 0 14 -4 25 -10 25 -5 0 -10 5 -10 12 0
6 9 3 20 -7 11 -10 20 -26 20 -37z m-5030 -26 c0 -8 11 -30 25 -48 14 -18 25
-40 25 -48 0 -30 19 -16 22 17 2 27 8 33 31 35 15 2 27 -1 27 -7 0 -6 7 -11
16 -11 11 0 14 -5 10 -16 -3 -9 -6 -22 -6 -30 0 -7 -13 -20 -28 -28 -26 -13
-31 -13 -45 2 -16 15 -17 15 -17 -5 0 -12 7 -26 15 -30 8 -5 16 -22 19 -38 2
-17 1 -24 -1 -17 -8 22 -23 2 -23 -30 l0 -31 -22 28 c-25 32 -41 114 -26 132
14 17 0 69 -26 101 -13 15 -26 40 -30 57 l-8 30 21 -24 c12 -13 21 -31 21 -39z
m477 -64 c-3 -8 -6 -5 -6 6 -1 11 2 17 5 13 3 -3 4 -12 1 -19z m-470 -50 c-3
-8 -6 -5 -6 6 -1 11 2 17 5 13 3 -3 4 -12 1 -19z m2808 -117 c-10 -87 -33
-102 -30 -19 3 72 13 104 27 90 6 -6 7 -35 3 -71z m-495 60 c0 -5 3 -17 7 -27
4 -11 3 -15 -4 -11 -14 9 -24 47 -12 47 5 0 9 -4 9 -9z m-2175 -171 l7 -44 19
23 c17 21 47 21 34 0 -4 -5 -1 -9 4 -9 17 0 13 -30 -4 -36 -15 -6 -22 -64 -7
-64 9 0 42 -53 42 -67 -1 -4 -12 6 -25 22 -28 34 -35 14 -8 -24 27 -39 -7 -20
-41 23 -28 34 -31 44 -29 97 1 33 -2 59 -7 59 -6 0 -10 -12 -10 -27 -1 -22 -3
-25 -10 -12 -5 8 -8 45 -7 80 2 63 3 65 18 45 9 -12 20 -41 24 -66z m2603 10
c-13 -22 -33 -53 -46 -68 -22 -26 -23 -26 -11 -2 15 32 68 110 75 110 2 0 -6
-18 -18 -40z m2390 -92 c7 -7 12 -21 11 -32 0 -20 -1 -20 -9 2 -5 12 -14 22
-20 22 -5 0 -10 5 -10 10 0 14 13 13 28 -2z m-161 -119 c1 -19 1 -20 -4 -4 -3
11 -10 24 -17 28 -7 6 -6 7 4 4 8 -2 16 -14 17 -28z m-4710 -66 c3 -10 13 -27
22 -37 13 -16 14 -18 1 -14 -19 6 -56 68 -41 68 7 0 14 -8 18 -17z m169 -160
c-7 -7 -26 7 -26 19 0 6 6 6 15 -2 9 -7 13 -15 11 -17z m1790 5 c21 -12 32
-24 24 -26 -7 -3 -17 2 -22 9 -8 11 -9 11 -5 -1 2 -8 0 -23 -5 -33 -7 -14 -13
-15 -28 -7 -11 6 -19 16 -17 23 1 7 -6 11 -15 9 -11 -2 -18 3 -18 13 0 9 4 14
9 10 6 -3 16 1 23 9 16 19 11 20 54 -6z m-1835 -5 c13 -16 12 -17 -3 -4 -17
13 -22 21 -14 21 2 0 10 -8 17 -17z m134 -93 c8 -13 -15 -13 -35 0 -12 8 -11
10 7 10 12 0 25 -4 28 -10z m50 -48 c-3 -3 -11 0 -18 7 -9 10 -8 11 6 5 10 -3
15 -9 12 -12z m-945 -162 c0 -5 -4 -10 -10 -10 -5 0 -10 5 -10 10 0 6 5 10 10
10 6 0 10 -4 10 -10z m100 -680 c0 -5 -4 -10 -10 -10 -5 0 -10 5 -10 10 0 6 5
10 10 10 6 0 10 -4 10 -10z m340 -40 c0 -5 -4 -10 -10 -10 -5 0 -10 5 -10 10
0 6 5 10 10 10 6 0 10 -4 10 -10z m-1060 -541 c0 -5 -4 -9 -10 -9 -5 0 -10 7
-10 16 0 8 5 12 10 9 6 -3 10 -10 10 -16z m1140 -19 c0 -5 -4 -10 -10 -10 -5
0 -10 5 -10 10 0 6 5 10 10 10 6 0 10 -4 10 -10z m-330 -90 c0 -5 -4 -10 -10
-10 -5 0 -10 5 -10 10 0 6 5 10 10 10 6 0 10 -4 10 -10z m-660 -274 c0 -3 -4
-8 -10 -11 -5 -3 -10 -1 -10 4 0 6 5 11 10 11 6 0 10 -2 10 -4z m4850 -100 c0
-3 -4 -8 -10 -11 -5 -3 -10 -1 -10 4 0 6 5 11 10 11 6 0 10 -2 10 -4z m-1421
-70 c-11 -9 -59 -15 -59 -7 0 5 12 11 28 13 27 3 39 1 31 -6z m-89 -15 c0 -5
-8 -12 -17 -15 -30 -9 -196 -36 -220 -36 -33 0 -28 20 5 21 15 0 63 9 107 19
94 21 125 24 125 11z m-3250 -11 c0 -5 -4 -10 -10 -10 -5 0 -10 5 -10 10 0 6
5 10 10 10 6 0 10 -4 10 -10z m2945 -40 c-11 -5 -36 -8 -55 -8 -32 0 -33 1
-10 8 14 4 39 8 55 8 25 1 27 -1 10 -8z m445 -4 c0 -3 -4 -8 -10 -11 -5 -3
-10 -1 -10 4 0 6 5 11 10 11 6 0 10 -2 10 -4z m-65 -26 c3 -5 1 -10 -4 -10 -6
0 -11 5 -11 10 0 6 2 10 4 10 3 0 8 -4 11 -10z m35 -24 c0 -3 -4 -8 -10 -11
-5 -3 -10 -1 -10 4 0 6 5 11 10 11 6 0 10 -2 10 -4z m2020 -106 c0 -5 -4 -10
-10 -10 -5 0 -10 5 -10 10 0 6 5 10 10 10 6 0 10 -4 10 -10z m-2523 -72 c-3
-8 -6 -5 -6 6 -1 11 2 17 5 13 3 -3 4 -12 1 -19z m1713 -14 c0 -8 -5 -12 -10
-9 -6 4 -8 11 -5 16 9 14 15 11 15 -7z m-280 -4 c0 -5 -5 -10 -11 -10 -5 0 -7
5 -4 10 3 6 8 10 11 10 2 0 4 -4 4 -10z m-1690 -75 c0 -8 -4 -15 -10 -15 -5 0
-10 7 -10 15 0 8 5 15 10 15 6 0 10 -7 10 -15z m2440 5 c0 -5 -4 -10 -10 -10
-5 0 -10 5 -10 10 0 6 5 10 10 10 6 0 10 -4 10 -10z m-4264 -27 c-10 -10 -19
5 -10 18 6 11 8 11 12 0 2 -7 1 -15 -2 -18z m4725 -46 c-1 -12 -15 -9 -19 4
-3 6 1 10 8 8 6 -3 11 -8 11 -12z m-2814 -49 c-3 -8 -6 -5 -6 6 -1 11 2 17 5
13 3 -3 4 -12 1 -19z m-2777 3 c0 -6 -4 -13 -10 -16 -5 -3 -10 1 -10 9 0 9 5
16 10 16 6 0 10 -4 10 -9z m3050 -16 c0 -8 -4 -15 -10 -15 -5 0 -10 7 -10 15
0 8 5 15 10 15 6 0 10 -7 10 -15z m-2684 -32 c-11 -11 -19 6 -11 24 8 17 8 17
12 0 3 -10 2 -21 -1 -24z m2484 -3 c0 -5 -4 -10 -10 -10 -5 0 -10 5 -10 10 0
6 5 10 10 10 6 0 10 -4 10 -10z m-2190 -30 c0 -5 -5 -10 -11 -10 -5 0 -7 5 -4
10 3 6 8 10 11 10 2 0 4 -4 4 -10z m3880 -14 c0 -3 -4 -8 -10 -11 -5 -3 -10
-1 -10 4 0 6 5 11 10 11 6 0 10 -2 10 -4z m-1590 -22 c0 -8 -4 -12 -10 -9 -5
3 -10 10 -10 16 0 5 5 9 10 9 6 0 10 -7 10 -16z m540 6 c0 -5 -4 -10 -10 -10
-5 0 -10 5 -10 10 0 6 5 10 10 10 6 0 10 -4 10 -10z m1150 -50 c0 -5 -4 -10
-10 -10 -5 0 -10 5 -10 10 0 6 5 10 10 10 6 0 10 -4 10 -10z m150 -31 c0 -5
-4 -9 -10 -9 -5 0 -10 7 -10 16 0 8 5 12 10 9 6 -3 10 -10 10 -16z m-220 1 c0
-5 -4 -10 -10 -10 -5 0 -10 5 -10 10 0 6 5 10 10 10 6 0 10 -4 10 -10z m40 0
c0 -5 -4 -10 -10 -10 -5 0 -10 5 -10 10 0 6 5 10 10 10 6 0 10 -4 10 -10z
m-200 -26 c0 -8 -4 -12 -10 -9 -5 3 -10 10 -10 16 0 5 5 9 10 9 6 0 10 -7 10
-16z m670 -14 c0 -5 -5 -10 -11 -10 -5 0 -7 5 -4 10 3 6 8 10 11 10 2 0 4 -4
4 -10z m-2390 -40 c0 -5 -4 -10 -10 -10 -5 0 -10 5 -10 10 0 6 5 10 10 10 6 0
10 -4 10 -10z m590 -20 c0 -5 -4 -10 -10 -10 -5 0 -10 5 -10 10 0 6 5 10 10
10 6 0 10 -4 10 -10z m1740 -4 c0 -3 -4 -8 -10 -11 -5 -3 -10 -1 -10 4 0 6 5
11 10 11 6 0 10 -2 10 -4z m257 -32 c-9 -9 -28 6 -21 18 4 6 10 6 17 -1 6 -6
8 -13 4 -17z m-2067 6 c0 -5 -4 -10 -10 -10 -5 0 -10 5 -10 10 0 6 5 10 10 10
6 0 10 -4 10 -10z m-2606 -93 c-9 -24 -23 -11 -17 14 3 12 9 17 15 11 5 -5 6
-16 2 -25z m3866 23 c0 -5 -2 -10 -4 -10 -3 0 -8 5 -11 10 -3 6 -1 10 4 10 6
0 11 -4 11 -10z m-35 -20 c3 -5 1 -10 -4 -10 -6 0 -11 5 -11 10 0 6 2 10 4 10
3 0 8 -4 11 -10z m235 -35 c0 -8 -4 -15 -10 -15 -5 0 -10 7 -10 15 0 8 5 15
10 15 6 0 10 -7 10 -15z m-3540 -2 c-1 -18 -18 -35 -24 -24 -4 6 -4 16 -1 21
7 12 25 13 25 3z m-950 -30 c0 -20 -3 -24 -11 -16 -7 7 -9 19 -6 27 10 24 17
19 17 -11z m3147 1 c-9 -9 -28 6 -21 18 4 6 10 6 17 -1 6 -6 8 -13 4 -17z
m333 -4 c0 -5 -2 -10 -4 -10 -3 0 -8 5 -11 10 -3 6 -1 10 4 10 6 0 11 -4 11
-10z m-3970 -20 c0 -5 -4 -10 -10 -10 -5 0 -10 5 -10 10 0 6 5 10 10 10 6 0
10 -4 10 -10z m3760 -80 c0 -5 -2 -10 -4 -10 -3 0 -8 5 -11 10 -3 6 -1 10 4
10 6 0 11 -4 11 -10z m-750 -22 c0 -16 -3 -19 -11 -11 -6 6 -8 16 -5 22 11 17
16 13 16 -11z m-1330 -8 c0 -5 -4 -10 -10 -10 -5 0 -10 5 -10 10 0 6 5 10 10
10 6 0 10 -4 10 -10z m2085 -20 c3 -5 1 -10 -4 -10 -6 0 -11 5 -11 10 0 6 2
10 4 10 3 0 8 -4 11 -10z m-2598 -82 c-3 -7 -5 -2 -5 12 0 14 2 19 5 13 2 -7
2 -19 0 -25z m2763 1 c0 -11 -4 -17 -10 -14 -5 3 -10 13 -10 21 0 8 5 14 10
14 6 0 10 -9 10 -21z"/>
<path d="M6410 9510 c0 -5 5 -10 10 -10 6 0 10 5 10 10 0 6 -4 10 -10 10 -5 0
-10 -4 -10 -10z"/>
<path d="M6538 8293 c7 -3 16 -2 19 1 4 3 -2 6 -13 5 -11 0 -14 -3 -6 -6z"/>
<path d="M7230 7665 c0 -8 5 -15 10 -15 6 0 10 7 10 15 0 8 -4 15 -10 15 -5 0
-10 -7 -10 -15z"/>
<path d="M6287 7752 c-19 -21 -22 -35 -6 -30 6 2 10 7 9 12 -1 5 4 12 11 17 8
4 11 10 8 14 -3 3 -13 -3 -22 -13z"/>
<path d="M6315 7750 c-4 -6 -3 -16 3 -22 13 -13 23 4 13 21 -7 10 -10 10 -16
1z"/>
<path d="M6286 7664 c-4 -10 -1 -14 6 -12 15 5 23 28 10 28 -5 0 -13 -7 -16
-16z"/>
<path d="M6395 7619 c-10 -15 1 -23 20 -15 9 3 13 10 10 16 -8 13 -22 13 -30
-1z"/>
<path d="M6693 7523 c-20 -8 -15 -23 7 -23 11 0 20 7 20 15 0 15 -6 17 -27 8z"/>
<path d="M5584 7576 c-3 -9 -4 -23 0 -31 8 -21 -4 -46 -18 -39 -6 4 -1 -4 12
-17 l23 -24 19 25 c28 35 23 94 -8 98 -13 2 -25 -3 -28 -12z"/>
<path d="M5308 7479 c-13 -7 -18 -23 -18 -58 0 -49 23 -121 39 -121 5 0 12
-19 15 -42 8 -48 49 -151 58 -143 3 3 2 25 -2 48 -5 23 -6 45 -4 48 2 3 -3 55
-11 115 -8 60 -15 114 -15 121 0 13 -27 43 -38 43 -4 0 -15 -5 -24 -11z"/>
<path d="M5161 7424 c0 -11 3 -14 6 -6 3 7 2 16 -1 19 -3 4 -6 -2 -5 -13z"/>
<path d="M6787 4953 c-23 -6 -18 -24 10 -34 17 -6 22 -3 26 17 4 24 0 26 -36
17z"/>
<path d="M5942 9760 c-39 -9 -48 -16 -29 -23 7 -3 31 3 53 13 41 19 31 23 -24
10z"/>
<path d="M5850 9720 c-18 -12 -2 -12 25 0 13 6 15 9 5 9 -8 0 -22 -4 -30 -9z"/>
<path d="M5788 9702 c-16 -10 -28 -20 -28 -24 0 -11 64 18 68 31 5 15 -7 13
-40 -7z"/>
<path d="M6990 9646 c0 -9 5 -16 10 -16 6 0 10 4 10 9 0 6 -4 13 -10 16 -5 3
-10 -1 -10 -9z"/>
<path d="M7325 9370 c27 -53 82 -135 99 -149 9 -7 16 -19 16 -26 0 -7 7 -15
15 -19 20 -7 21 -9 -25 79 -40 79 -70 119 -103 137 -17 9 -17 8 -2 -22z"/>
<path d="M7500 9133 c0 -12 4 -24 9 -27 5 -3 12 -25 15 -49 4 -23 15 -56 25
-73 24 -39 36 -94 22 -94 -6 0 -17 11 -23 25 -13 28 -32 34 -24 7 3 -10 12
-42 20 -72 19 -72 49 -139 53 -120 4 18 -13 213 -22 255 -4 17 -13 44 -21 62
-8 17 -14 34 -14 37 0 3 -9 20 -20 38 -17 29 -20 30 -20 11z"/>
<path d="M5113 8958 c-18 -41 -64 -199 -61 -210 5 -15 32 53 58 145 22 77 23
109 3 65z"/>
<path d="M7751 8604 c0 -11 3 -14 6 -6 3 7 2 16 -1 19 -3 4 -6 -2 -5 -13z"/>
<path d="M7666 8515 c3 -29 13 -58 25 -70 30 -31 25 -6 -20 95 -9 21 -10 17
-5 -25z"/>
<path d="M7780 8527 c0 -13 6 -32 14 -43 14 -18 15 -18 22 -1 8 21 -10 67 -26
67 -5 0 -10 -10 -10 -23z"/>
<path d="M7810 8445 c0 -8 5 -15 10 -15 6 0 10 7 10 15 0 8 -4 15 -10 15 -5 0
-10 -7 -10 -15z"/>
<path d="M7711 8403 c0 -10 4 -27 9 -38 7 -17 9 -15 9 12 1 17 -3 35 -9 38 -5
3 -10 -2 -9 -12z"/>
<path d="M7910 8350 c-8 -5 -13 -10 -10 -11 30 -6 50 -4 47 5 -5 14 -20 17
-37 6z"/>
<path d="M4941 7970 c0 -8 4 -24 9 -35 5 -13 9 -14 9 -5 0 8 -4 24 -9 35 -5
13 -9 14 -9 5z"/>
<path d="M4962 7830 c0 -19 2 -27 5 -17 2 9 2 25 0 35 -3 9 -5 1 -5 -18z"/>
<path d="M7760 7751 c0 -10 -3 -40 -6 -67 -4 -33 -2 -44 4 -35 5 7 7 22 5 32
-3 10 0 19 6 19 6 0 11 -18 11 -44 0 -47 14 -69 24 -38 8 25 -1 107 -14 132
-13 25 -30 26 -30 1z"/>
<path d="M4972 7720 c0 -14 3 -34 8 -45 l9 -20 -1 20 c0 11 -4 31 -8 45 l-8
25 0 -25z"/>
<path d="M4991 7584 c0 -11 3 -14 6 -6 3 7 2 16 -1 19 -3 4 -6 -2 -5 -13z"/>
<path d="M5002 7510 c0 -14 2 -19 5 -12 2 6 2 18 0 25 -3 6 -5 1 -5 -13z"/>
<path d="M5022 7430 c0 -14 2 -19 5 -12 2 6 2 18 0 25 -3 6 -5 1 -5 -13z"/>
<path d="M5031 7354 c0 -11 3 -14 6 -6 3 7 2 16 -1 19 -3 4 -6 -2 -5 -13z"/>
<path d="M7952 7248 c6 -18 48 -30 48 -14 0 8 -7 17 -16 20 -24 9 -36 7 -32
-6z"/>
<path d="M6170 7170 c0 -5 4 -10 9 -10 6 0 13 5 16 10 3 6 -1 10 -9 10 -9 0
-16 -4 -16 -10z"/>
<path d="M6651 7133 c-5 -10 -23 -27 -40 -38 -37 -24 -43 -38 -31 -69 6 -16 4
-44 -5 -82 -19 -78 -19 -133 -1 -140 8 -3 27 3 42 13 15 10 38 16 51 15 31 -5
31 30 0 55 -47 36 -44 112 4 164 25 26 28 36 21 62 -9 37 -27 45 -41 20z"/>
<path d="M8007 7006 c-6 -15 1 -26 15 -26 4 0 8 9 8 20 0 23 -15 27 -23 6z"/>
<path d="M5400 6846 c0 -8 7 -16 15 -20 17 -6 18 -4 9 18 -8 20 -24 21 -24 2z"/>
<path d="M7890 6845 c0 -19 9 -19 34 0 19 14 19 15 -7 15 -17 0 -27 -5 -27
-15z"/>
<path d="M6057 6820 c-18 -22 -22 -40 -9 -40 11 0 37 48 31 55 -3 2 -13 -5
-22 -15z"/>
<path d="M7920 6710 c0 -5 5 -10 10 -10 6 0 10 5 10 10 0 6 -4 10 -10 10 -5 0
-10 -4 -10 -10z"/>
<path d="M8240 6625 c0 -8 8 -15 18 -14 10 0 12 3 4 6 -6 2 -10 9 -6 14 3 5 0
9 -5 9 -6 0 -11 -7 -11 -15z"/>
<path d="M6605 6606 c-38 -6 -65 -14 -60 -17 14 -8 222 -5 231 4 4 4 5 9 3 11
-12 10 -113 11 -174 2z"/>
<path d="M6078 6573 c12 -2 30 -2 40 0 9 3 -1 5 -23 4 -22 0 -30 -2 -17 -4z"/>
<path d="M8015 6550 c-8 -12 20 -24 35 -15 6 3 8 11 5 16 -8 12 -32 12 -40 -1z"/>
<path d="M7920 6427 c0 -18 24 -29 45 -20 23 8 12 28 -18 31 -18 2 -27 -1 -27
-11z"/>
<path d="M7866 6315 c-4 -12 -1 -16 14 -13 24 3 28 22 7 26 -8 2 -17 -4 -21
-13z"/>
<path d="M7840 6296 c0 -22 3 -27 11 -19 8 8 8 16 0 30 -9 16 -10 14 -11 -11z"/>
<path d="M6100 6255 c-14 -37 -13 -48 6 -41 9 3 22 6 29 6 16 0 9 34 -11 51
-11 9 -16 6 -24 -16z"/>
<path d="M6573 6251 c-51 -20 -63 -31 -34 -31 13 0 26 -9 33 -24 11 -25 11
-25 27 -5 11 14 35 23 71 28 l55 7 -35 22 c-41 25 -60 26 -117 3z"/>
<path d="M6546 6062 c-8 -13 10 -52 24 -52 13 0 12 10 -4 39 -8 15 -16 20 -20
13z"/>
<path d="M8448 5993 c2 -27 8 -55 13 -63 9 -15 10 -11 14 41 0 9 7 24 14 33
11 13 10 17 -14 26 -14 5 -28 10 -29 10 -2 0 -1 -21 2 -47z"/>
<path d="M6873 5965 c-16 -17 -17 -41 -3 -50 13 -8 36 43 24 54 -5 6 -14 4
-21 -4z"/>
<path d="M8460 5875 c0 -19 3 -35 8 -35 4 0 7 16 7 35 0 19 -3 35 -7 35 -5 0
-8 -16 -8 -35z"/>
<path d="M8755 5890 c3 -5 8 -10 11 -10 2 0 4 5 4 10 0 6 -5 10 -11 10 -5 0
-7 -4 -4 -10z"/>
<path d="M8847 5840 c-3 -11 -1 -20 4 -20 17 0 9 -27 -16 -56 -18 -20 -28 -25
-35 -18 -13 13 -66 -35 -80 -71 -14 -36 -23 -175 -12 -175 6 0 13 6 15 13 4 9
8 9 14 0 5 -7 37 -11 83 -10 41 0 65 2 53 5 -15 2 -23 10 -23 23 0 16 5 18 28
13 15 -4 35 -11 44 -15 22 -12 38 -11 38 1 0 6 -11 15 -25 20 -14 5 -25 16
-25 25 0 20 42 20 80 0 17 -9 30 -11 30 -6 0 5 -7 12 -16 15 -12 5 -15 14 -11
36 6 26 -22 102 -44 120 -3 3 -19 24 -36 47 -17 23 -33 39 -37 36 -3 -3 -6 1
-6 10 0 24 -17 29 -23 7z m-94 -279 c21 -36 21 -41 2 -41 -8 0 -15 7 -15 15 0
18 -16 20 -23 3 -3 -7 -6 -1 -6 13 -2 47 17 51 42 10z"/>
<path d="M5674 5748 c-7 -10 5 -14 109 -35 15 -3 27 -10 27 -17 1 -14 30 24
30 39 0 7 -12 10 -30 7 -17 -2 -36 0 -43 6 -14 12 -86 12 -93 0z"/>
<path d="M5620 5680 c0 -5 5 -10 10 -10 6 0 10 5 10 10 0 6 -4 10 -10 10 -5 0
-10 -4 -10 -10z"/>
<path d="M6980 5645 c-10 -12 -10 -15 3 -15 19 0 31 16 18 24 -5 3 -14 -1 -21
-9z"/>
<path d="M5790 5585 c-5 -13 -18 -33 -30 -45 -17 -17 -18 -20 -3 -20 23 0 113
42 113 52 0 5 -9 4 -19 -2 -32 -16 -42 -12 -35 15 8 33 -13 33 -26 0z"/>
<path d="M6770 5578 c-19 -5 -46 -12 -60 -16 -34 -9 -64 -32 -79 -59 -15 -29
-30 -29 -56 1 -28 33 -97 42 -121 15 -16 -18 -16 -19 4 -19 12 0 22 -3 22 -7
1 -5 16 -26 35 -47 33 -37 36 -38 53 -23 23 21 43 9 58 -35 l12 -33 32 70 c35
75 79 122 122 132 34 7 60 34 32 32 -11 -1 -35 -5 -54 -11z"/>
<path d="M9120 5480 c0 -5 5 -10 11 -10 5 0 7 5 4 10 -3 6 -8 10 -11 10 -2 0
-4 -4 -4 -10z"/>
<path d="M5613 5456 c-27 -28 -29 -41 -7 -32 11 4 15 2 11 -8 -7 -17 16 -28
39 -19 13 5 12 9 -6 25 -16 15 -19 23 -11 31 6 6 11 15 11 19 0 14 -15 8 -37
-16z"/>
<path d="M8698 5415 c-4 -27 -11 -94 -17 -149 -6 -54 -16 -117 -21 -140 -5
-22 -10 -68 -10 -101 0 -73 -16 -189 -29 -213 -38 -70 -101 -256 -101 -296 0
-14 -4 -36 -10 -50 -9 -25 -52 -232 -65 -311 -3 -22 -8 -53 -11 -70 -4 -23 -3
-26 5 -15 9 12 11 11 11 -7 0 -26 20 -42 21 -16 0 16 1 16 8 -2 7 -18 9 -17
15 10 4 17 8 47 10 68 8 77 38 113 73 85 7 -5 27 -8 45 -6 26 2 35 -2 45 -21
13 -27 9 -41 -12 -41 -11 0 -28 -26 -25 -40 0 -3 14 -3 30 -2 41 5 59 -37 37
-84 -14 -28 -14 -31 5 -43 16 -10 19 -19 14 -42 -3 -16 -1 -29 4 -29 6 0 10
-7 10 -15 0 -8 -4 -15 -10 -15 -5 0 -10 -4 -10 -8 0 -17 45 -5 48 13 2 9 0 15
-6 11 -20 -12 -21 24 -1 37 11 8 28 30 37 49 10 18 28 44 40 56 36 36 25 101
-16 88 -13 -4 -22 -1 -26 9 -3 10 1 15 13 15 10 0 22 7 25 16 9 23 7 62 -3 66
-4 2 -10 25 -13 51 -5 41 -3 49 16 59 11 6 23 11 26 10 3 -1 4 9 3 21 -4 45 7
68 38 79 25 9 30 15 25 34 -5 17 -1 26 13 34 29 15 31 13 31 -31 0 -27 4 -39
12 -37 8 3 11 21 9 51 -1 29 2 47 8 47 6 0 11 9 11 20 0 11 -4 20 -9 20 -5 0
-11 9 -14 20 -3 11 -2 18 1 16 4 -2 7 18 8 45 0 27 -3 49 -7 49 -4 0 -9 6 -12
13 -2 6 -2 2 0 -10 2 -17 -1 -21 -13 -16 -13 5 -15 17 -10 67 3 33 7 88 7 121
1 33 3 50 6 38 5 -26 18 -30 26 -9 7 18 -3 56 -14 56 -5 0 -7 27 -6 60 1 34
-2 64 -8 68 -17 12 -38 48 -50 87 -2 8 -13 15 -24 15 -11 0 -22 9 -26 19 -3
11 -12 22 -20 25 -19 7 -50 70 -65 133 -13 57 -36 86 -50 63 -6 -10 -9 -8 -12
6 -3 10 -7 -3 -10 -31z m36 -455 c-4 -8 -9 -28 -12 -44 -3 -20 -7 -24 -13 -15
-5 8 -6 30 -3 49 4 26 3 31 -5 20 -8 -11 -11 -11 -11 -2 0 7 6 19 13 27 10 12
14 11 25 -3 7 -9 9 -23 6 -32z m-14 -134 c-17 -22 -32 -9 -19 16 8 14 14 17
22 9 7 -7 6 -15 -3 -25z m-10 -182 c0 -8 -5 -14 -11 -14 -7 0 -17 -7 -23 -15
-10 -13 -13 -13 -24 6 -8 12 -9 18 -3 14 6 -3 11 -1 11 4 0 6 7 11 15 11 8 0
15 5 15 11 0 5 5 7 10 4 6 -3 10 -13 10 -21z m-50 -139 c-14 -17 -40 -20 -40
-6 0 6 10 17 22 25 12 9 17 16 10 16 -13 0 -17 32 -4 44 13 14 25 -63 12 -79z
m18 -88 c5 -25 -26 -57 -53 -57 -33 0 -37 25 -9 55 27 29 57 30 62 2z m6 -110
c16 -26 -53 -90 -92 -85 -23 3 -27 8 -29 36 -1 20 4 35 12 38 8 3 11 12 8 20
-8 22 87 14 101 -9z"/>
<path d="M8761 5448 c10 -8 24 -30 32 -51 16 -36 54 -56 40 -20 -5 13 -3 15
13 8 16 -7 68 -12 151 -14 12 -1 28 -7 35 -14 19 -19 51 -30 42 -15 -14 23 -4
73 19 90 12 10 17 18 10 18 -17 0 -63 -22 -63 -30 0 -3 -19 -4 -42 0 -39 5
-74 -3 -88 -22 -6 -8 -90 2 -90 11 -1 15 -27 39 -50 45 -22 6 -23 5 -9 -6z"/>
<path d="M5527 5421 c-10 -4 -18 -10 -18 -14 3 -22 -1 -27 -23 -27 -17 0 -24
-5 -24 -17 1 -10 -2 -28 -6 -40 -5 -14 -3 -23 3 -23 6 0 11 6 11 14 0 8 14 20
30 28 17 7 30 20 30 29 0 9 7 22 15 29 28 24 18 36 -18 21z"/>
<path d="M5685 5410 c-3 -5 3 -10 15 -10 12 0 18 5 15 10 -3 6 -10 10 -15 10
-5 0 -12 -4 -15 -10z"/>
<path d="M9183 5410 c-30 -12 -29 -22 4 -37 40 -19 49 -16 48 14 0 30 -17 37
-52 23z"/>
<path d="M5224 5325 c-18 -14 -18 -16 -1 -26 15 -9 16 -12 2 -25 -22 -23 -18
-34 11 -34 18 0 24 4 21 13 -3 7 4 19 14 25 23 14 25 42 4 42 -8 0 -15 5 -15
10 0 14 -13 12 -36 -5z"/>
<path d="M6370 5261 c0 -5 5 -13 10 -16 6 -3 10 -2 10 4 0 5 -4 13 -10 16 -5
3 -10 2 -10 -4z"/>
<path d="M5327 5243 c-4 -3 -7 -11 -7 -17 0 -6 5 -5 12 2 6 6 9 14 7 17 -3 3
-9 2 -12 -2z"/>
<path d="M5177 5204 c-4 -4 -7 -14 -7 -23 0 -11 3 -12 11 -4 6 6 10 16 7 23
-2 6 -7 8 -11 4z"/>
<path d="M5770 5179 c0 -5 5 -7 10 -4 6 3 10 8 10 11 0 2 -4 4 -10 4 -5 0 -10
-5 -10 -11z"/>
<path d="M5726 5172 c-2 -4 -1 -14 5 -22 7 -12 9 -10 9 8 0 23 -5 28 -14 14z"/>
<path d="M9282 5120 c0 -14 2 -19 5 -12 2 6 2 18 0 25 -3 6 -5 1 -5 -13z"/>
<path d="M5516 5044 c-3 -8 3 -32 13 -52 17 -33 17 -41 6 -69 -22 -51 15 -156
47 -137 5 3 8 0 8 -7 0 -9 3 -10 11 -2 7 7 8 38 3 92 -6 75 -9 84 -35 104 -20
14 -29 30 -29 48 0 32 -15 46 -24 23z"/>
<path d="M5652 4965 c9 -10 21 -16 28 -13 7 2 -1 10 -16 17 -27 12 -28 11 -12
-4z"/>
<path d="M5735 4948 c-3 -13 -2 -50 2 -83 8 -59 9 -60 41 -62 29 -1 32 1 32
28 0 22 -5 29 -20 29 -25 0 -43 42 -35 82 8 34 -12 39 -20 6z"/>
<path d="M5274 4815 c4 -16 12 -34 17 -39 5 -6 5 4 -1 24 -12 42 -25 55 -16
15z"/>
<path d="M5690 4800 c0 -5 8 -10 18 -11 10 0 12 -3 5 -6 -19 -7 -16 -40 4 -47
9 -4 20 -1 25 6 6 10 8 10 8 1 0 -18 17 -16 24 3 4 11 -1 18 -14 21 -11 3 -20
11 -20 18 0 7 -7 16 -16 19 -23 9 -34 7 -34 -4z"/>
<path d="M5612 4750 c0 -14 2 -19 5 -12 2 6 2 18 0 25 -3 6 -5 1 -5 -13z"/>
<path d="M5890 4758 c0 -9 5 -20 10 -23 13 -8 13 5 0 25 -8 13 -10 13 -10 -2z"/>
<path d="M4973 4506 c-18 -24 -42 -53 -53 -66 -27 -31 -26 -52 2 -41 13 5 26
23 34 49 6 23 22 50 34 60 13 10 21 23 19 29 -2 6 -19 -8 -36 -31z"/>
<path d="M6068 4483 c5 -21 7 -23 10 -9 2 10 0 22 -6 28 -6 6 -7 0 -4 -19z"/>
<path d="M7443 4493 c-3 -10 -8 -22 -11 -28 -3 -5 4 -1 16 9 24 20 28 36 12
36 -6 0 -13 -8 -17 -17z"/>
<path d="M8078 4494 c-8 -12 -5 -40 5 -50 4 -4 7 -12 7 -18 -1 -36 -57 -57
-83 -31 -12 12 -26 14 -52 9 -32 -6 -35 -9 -35 -40 0 -22 6 -37 15 -40 8 -4
15 -16 15 -29 0 -12 -7 -28 -15 -35 -8 -7 -15 -19 -15 -26 0 -9 -11 -14 -30
-14 -16 0 -30 5 -30 10 0 6 -4 10 -10 10 -12 0 -13 -50 -2 -66 4 -6 16 -14 27
-19 17 -6 14 -9 -20 -17 -22 -4 -45 -16 -52 -24 -8 -11 -20 -14 -40 -10 -21 5
-34 1 -50 -14 -28 -25 -33 -25 -34 3 -1 21 -1 21 -8 -3 -6 -19 -3 -28 13 -37
12 -6 22 -8 24 -2 7 18 19 9 17 -13 -1 -15 -9 -24 -21 -26 -20 -3 -44 -50 -44
-83 0 -9 -11 -38 -25 -66 -13 -28 -27 -64 -30 -80 -11 -49 -36 -107 -61 -145
-14 -20 -29 -60 -34 -90 -5 -29 -16 -84 -25 -123 -8 -38 -13 -75 -11 -81 3 -7
1 -14 -3 -16 -5 -2 -12 -19 -15 -38 -7 -33 -6 -34 8 -15 8 11 23 28 33 39 13
13 15 20 6 23 -7 3 -13 10 -13 16 1 7 9 2 19 -10 11 -13 22 -23 26 -23 13 0
31 26 45 64 12 31 23 42 60 56 31 12 49 26 58 46 24 52 27 56 62 68 19 6 39
20 45 31 17 35 51 66 74 68 15 1 21 8 21 23 0 12 5 24 11 26 8 3 9 10 2 23
-12 24 -6 46 10 39 8 -3 17 16 26 53 7 32 23 88 36 125 13 37 31 105 40 150
17 84 26 118 53 195 13 39 13 45 -3 69 -15 23 -15 26 -2 21 12 -4 18 6 27 43
7 27 10 55 7 62 -3 7 -6 2 -7 -12 -2 -23 -3 -23 -9 5 -3 17 -9 25 -13 19z
m-38 -286 c0 -19 -18 -43 -25 -36 -4 3 -2 16 5 27 12 24 20 27 20 9z m-109
-399 c-5 -13 -10 -19 -10 -12 -1 15 10 45 15 40 3 -2 0 -15 -5 -28z"/>
<path d="M6102 4465 c6 -14 13 -24 14 -22 6 6 -9 47 -17 47 -5 0 -3 -11 3 -25z"/>
<path d="M6320 4440 c0 -5 4 -10 9 -10 6 0 13 5 16 10 3 6 -1 10 -9 10 -9 0
-16 -4 -16 -10z"/>
<path d="M5087 4423 c-4 -3 -7 -11 -7 -17 0 -6 5 -5 12 2 6 6 9 14 7 17 -3 3
-9 2 -12 -2z"/>
<path d="M7427 4335 c-37 -65 -50 -76 -61 -52 -3 6 -3 1 0 -12 4 -14 2 -21 -3
-18 -14 9 -61 -105 -54 -126 5 -13 12 -3 26 35 10 29 25 59 33 67 50 51 120
171 99 171 -1 0 -20 -29 -40 -65z"/>
<path d="M6062 4360 c0 -14 2 -19 5 -12 2 6 2 18 0 25 -3 6 -5 1 -5 -13z"/>
<path d="M5793 4158 c8 -13 13 -14 19 -5 12 19 9 26 -11 24 -15 -1 -17 -4 -8
-19z"/>
<path d="M5988 4143 c6 -2 18 -2 25 0 6 3 1 5 -13 5 -14 0 -19 -2 -12 -5z"/>
<path d="M7690 4130 c0 -5 5 -10 10 -10 6 0 10 5 10 10 0 6 -4 10 -10 10 -5 0
-10 -4 -10 -10z"/>
<path d="M5718 4122 c-10 -2 -18 -8 -18 -13 0 -13 27 -11 35 2 9 13 4 16 -17
11z"/>
<path d="M5760 4060 c0 -5 4 -10 9 -10 6 0 13 5 16 10 3 6 -1 10 -9 10 -9 0
-16 -4 -16 -10z"/>
<path d="M6645 3800 c1 -60 19 -86 34 -48 5 14 16 28 24 31 10 3 13 14 10 31
-5 25 -23 37 -23 15 0 -6 -7 -3 -16 5 -25 25 -30 19 -29 -34z"/>
<path d="M5256 3505 c3 -11 9 -30 11 -43 3 -12 9 -25 14 -28 15 -9 9 19 -12
56 -11 19 -17 26 -13 15z"/>
<path d="M5561 3404 c0 -11 3 -14 6 -6 3 7 2 16 -1 19 -3 4 -6 -2 -5 -13z"/>
<path d="M6345 3152 c-6 -5 -29 -15 -52 -22 -47 -14 -60 -34 -15 -21 33 10 92
39 92 46 0 8 -15 6 -25 -3z"/>
<path d="M5905 3020 c-18 -8 -17 -9 7 -9 15 -1 30 4 33 9 7 12 -12 12 -40 0z"/>
<path d="M7305 2940 c3 -5 13 -10 21 -10 8 0 14 5 14 10 0 6 -9 10 -21 10 -11
0 -17 -4 -14 -10z"/>
<path d="M6823 2741 c3 -12 -1 -22 -11 -26 -13 -5 -12 -8 7 -22 18 -12 25 -13
31 -3 4 7 13 9 19 6 19 -12 12 13 -11 39 -26 30 -42 32 -35 6z"/>
<path d="M7265 2510 c3 -5 8 -10 11 -10 2 0 4 5 4 10 0 6 -5 10 -11 10 -5 0
-7 -4 -4 -10z"/>
<path d="M7295 2511 c-3 -5 0 -13 5 -16 7 -4 8 -19 5 -36 -5 -23 -3 -29 10
-29 21 0 30 -27 15 -45 -14 -17 -35 -21 -25 -5 3 6 0 10 -9 10 -8 0 -16 4 -18
10 -1 5 -23 12 -48 14 -24 3 -46 9 -48 15 -5 14 -32 14 -32 1 0 -5 4 -10 8
-10 5 0 17 -8 28 -18 10 -9 39 -26 64 -37 25 -10 52 -24 60 -29 44 -32 81 -46
105 -40 14 3 25 10 25 15 0 21 21 6 34 -25 16 -37 31 -50 47 -41 7 5 6 14 -4
28 -8 12 -17 34 -21 50 -3 15 -13 27 -22 27 -10 0 -14 6 -10 15 3 8 1 15 -3
15 -5 0 -12 -6 -14 -12 -3 -7 -6 -1 -6 14 -1 27 -16 46 -23 29 -1 -5 -16 1
-31 15 -24 20 -26 27 -17 45 11 19 10 20 -9 14 -15 -4 -21 -2 -21 8 0 8 -7 18
-16 21 -20 8 -22 8 -29 -3z"/>
<path d="M6793 2079 c-1 -22 -6 -46 -12 -53 -16 -19 59 -107 154 -180 47 -36
87 -66 89 -66 12 0 11 42 0 70 -8 17 -11 43 -8 56 5 20 -3 34 -47 78 -56 55
-156 136 -168 136 -4 0 -7 -18 -8 -41z"/>
<path d="M6209 1946 c6 -7 9 -21 5 -30 -3 -9 -2 -16 4 -16 16 0 21 25 7 43 -7
9 -16 17 -20 17 -4 0 -2 -6 4 -14z"/>
<path d="M6245 1890 c3 -5 8 -10 11 -10 2 0 4 5 4 10 0 6 -5 10 -11 10 -5 0
-7 -4 -4 -10z"/>
<path d="M6277 1845 c10 -13 22 -25 27 -25 5 0 -1 11 -14 25 -30 32 -36 32
-13 0z"/>
<path d="M7077 1843 c-4 -3 -7 -15 -7 -25 0 -14 8 -18 38 -18 48 0 57 8 35 32
-16 18 -53 24 -66 11z"/>
<path d="M8242 1820 c0 -14 2 -19 5 -12 2 6 2 18 0 25 -3 6 -5 1 -5 -13z"/>
<path d="M8320 1779 c0 -11 5 -17 10 -14 6 3 10 13 10 21 0 8 -4 14 -10 14 -5
0 -10 -9 -10 -21z"/>
<path d="M8210 1780 c-13 -8 -13 -10 2 -10 9 0 20 5 23 10 8 13 -5 13 -25 0z"/>
</g>
</svg>
